<?xml version="1.0" standalone="no"?>
<!DOCTYPE svg PUBLIC "-//W3C//DTD SVG 1.1//EN" "http://www.w3.org/Graphics/SVG/1.1/DTD/svg11.dtd" >
<svg xmlns="http://www.w3.org/2000/svg">
<metadata>
Created by FontPrep 20130207 at Sat Aug 16 14:40:40 2014
 By Chris Masters
Copyright (c) 2013 Type-O-Tones. v1.0 by Jose M. Uros. Barcelona. All rights reserved.
</metadata>
<defs>
<font id="2872b95fc65486968fd8f91b9ba5efbc" horiz-adv-x='1024' >
  <font-face 
    font-family="Arboria-Book"
    font-weight="400"
    font-stretch="normal"
    units-per-em="2048"
    panose-1="2 0 5 3 0 0 0 0 0 0"
    ascent="1642"
    descent="-406"
    x-height="997"
    cap-height="1327"
    bbox="-53 -436 1894 1790"
    underline-thickness="73"
    underline-position="-82"
    unicode-range="U+0020-00FF"
  />
<missing-glyph horiz-adv-x="1024" 
 />
    <glyph glyph-name=".notdef" horiz-adv-x="1024" 
 />
    <glyph glyph-name=".null" horiz-adv-x="0" 
 />
    <glyph glyph-name="nonmarkingreturn" horiz-adv-x="681" 
 />
    <glyph glyph-name="space" unicode=" " horiz-adv-x="499" 
 />
    <glyph glyph-name="exclam" unicode="!" horiz-adv-x="462" 
d="M299 348h-137l-19 979h174zM119 92q0 47 33 80q34 33 80 33t79 -33t33 -80t-33 -80t-79 -33t-80 33q-33 33 -33 80z" />
    <glyph glyph-name="quotedbl" unicode="&#x22;" horiz-adv-x="720" 
d="M565 860h-135v467h135v-467zM291 860h-135v467h135v-467z" />
    <glyph glyph-name="numbersign" unicode="#" 
d="M512 872l-92 -383h239l95 383h-242zM301 0h-125l88 371h-162l29 118h160l94 383h-164l29 119h164l82 336h125l-82 -336h241l82 336h123l-82 -336h158l-29 -119h-155l-93 -383h158l-29 -118h-157l-90 -371h-123l90 371h-242z" />
    <glyph glyph-name="dollar" unicode="$" 
d="M575 139q137 0 234 68q96 69 96 179t-96 155t-227 71t-232 76q-186 92 -186 283q0 153 102 243t246 109v238h137v-238q182 -12 342 -154l-73 -118q-164 133 -334 133q-102 0 -178 -58q-80 -57 -80 -147t66 -138t236 -83q169 -35 294 -109q147 -88 147 -260t-119 -272
t-301 -117v-264h-137v260q-260 19 -420 199l72 118q160 -174 411 -174z" />
    <glyph glyph-name="percent" unicode="%" horiz-adv-x="1744" 
d="M516 -31l-90 51l815 1358l90 -51zM1333 791q135 0 222 -114t87 -293q0 -180 -87 -292t-221 -112t-222 112q-86 113 -86 291t86 293t221 115zM1151 385q0 -127 51 -207t132 -80t132 80q52 80 52 206t-52 208t-132 82q-81 0 -134 -80q-49 -82 -49 -209zM412 1348
q133 0 220 -114t87 -293t-87 -292t-221 -113t-223 113q-86 113 -86 291t86 293q91 115 224 115zM410 653q82 0 133 82t51 207t-51 207t-133 82t-132 -79t-50 -210t51 -209q49 -80 131 -80z" />
    <glyph glyph-name="ampersand" unicode="&#x26;" horiz-adv-x="1179" 
d="M229 383q0 -115 88 -185t223 -69q135 0 248 94l-380 404q-82 -35 -134 -103q-45 -67 -45 -141zM66 375q0 111 65 211q66 96 186 155q-98 145 -98 275t95 230q95 101 268 102q246 0 350 -244l-135 -78q-27 82 -90 129t-138 47t-129 -54t-55 -132q0 -143 231 -393l269 -287
q63 82 63 207h154q0 -87 -30 -179t-73 -141l140 -147l-105 -101l-135 142q-161 -137 -365 -137t-336 101t-132 294z" />
    <glyph glyph-name="quotesingle" unicode="'" horiz-adv-x="446" 
d="M291 860h-135v467h135v-467z" />
    <glyph glyph-name="parenleft" unicode="(" horiz-adv-x="618" 
d="M281 584q0 -410 268 -709l-94 -102q-336 330 -336 811t336 811l94 -103q-268 -298 -268 -708z" />
    <glyph glyph-name="parenright" unicode=")" horiz-adv-x="618" 
d="M338 584q0 416 -268 708l94 103q336 -330 336 -811t-336 -811l-94 102q268 293 268 709z" />
    <glyph glyph-name="asterisk" unicode="*" horiz-adv-x="847" 
d="M483 614h-118l10 279l-238 -148l-57 101l250 131l-250 131l57 100l238 -149l-10 280h118l-10 -280l238 149l57 -100l-250 -131l250 -131l-57 -101l-238 150z" />
    <glyph glyph-name="plus" unicode="+" 
d="M651 94h-143v381h-383v133h383v385h143v-385h387v-133h-387v-381z" />
    <glyph glyph-name="comma" unicode="," horiz-adv-x="432" 
d="M197 -281h-121l100 469h164z" />
    <glyph glyph-name="hyphen" unicode="-" horiz-adv-x="899" 
d="M838 420h-777v135h777v-135z" />
    <glyph glyph-name="period" unicode="." horiz-adv-x="432" 
d="M102 92q0 47 33 80t80 33t80 -33t33 -80t-33 -80t-80 -33t-80 33t-33 80z" />
    <glyph glyph-name="slash" unicode="/" horiz-adv-x="1013" 
d="M184 -39h-153l876 1458h154z" />
    <glyph glyph-name="zero" unicode="0" 
d="M82 664q0 297 139 491q141 193 361 193t360 -193q139 -193 139 -491t-139 -492q-140 -193 -360 -193t-361 193q-139 195 -139 492zM582 1203q-150 0 -241 -152q-91 -153 -91 -389t90 -388q92 -150 243 -150t238 150q92 150 92 389t-92 388q-89 152 -239 152z" />
    <glyph glyph-name="one" unicode="1" 
d="M1014 0h-781v145h318v967l-277 -201l-77 115l372 301h142v-1182h303v-145z" />
    <glyph glyph-name="two" unicode="2" 
d="M1044 0h-921v113q357 293 535 493t178 342q0 112 -77 182t-198 70q-162 0 -338 -170l-90 107q180 211 436 211q197 0 316 -113t119 -260t-105 -307q-168 -258 -530 -523h675v-145z" />
    <glyph glyph-name="three" unicode="3" 
d="M528 123q154 0 250 84t96 209q0 124 -91 202t-211 78t-212 -53l-63 107l459 432h-604v145h829v-141l-379 -361q190 -6 316 -113t126 -301t-143 -313q-137 -119 -364 -118q-283 -1 -428 159l88 117q115 -133 331 -133z" />
    <glyph glyph-name="four" unicode="4" 
d="M891 0h-160v283h-629v120l551 932l135 -78l-495 -831h438v326h160v-326h172v-143h-172v-283z" />
    <glyph glyph-name="five" unicode="5" 
d="M531 123q165 0 253 87t88 210t-98 203q-94 82 -242 82t-280 -93l-78 62v653h801v-145h-643v-394q129 53 237 54q203 0 338 -117t135 -306t-133 -315t-369 -124q-236 0 -399 137l66 129q158 -123 324 -123z" />
    <glyph glyph-name="six" unicode="6" 
d="M268 449q0 -137 88 -231t224 -95q136 0 224 95q89 96 89 228t-89 227t-224 95t-224 -94q-88 -88 -88 -225zM100 440q0 188 125 338l467 570l125 -95l-305 -362q29 14 86 14q197 0 330 -131q133 -132 133 -326t-135 -331t-347 -137t-346 133q-133 139 -133 327z" />
    <glyph glyph-name="seven" unicode="7" 
d="M152 1182v145h940v-119l-621 -1208h-174l618 1182h-763z" />
    <glyph glyph-name="eight" unicode="8" 
d="M356 1010q0 -86 64 -144t162 -57q98 0 161 57q63 58 63 144t-62 143q-64 57 -162 57t-162 -57t-64 -143zM264 402q0 -118 88 -198t228 -81q140 0 230 77q89 76 89 198t-89 203t-229 81q-141 0 -229 -81t-88 -199zM94 397q0 119 66 213t184 144q-141 92 -141 264
q0 143 105 236q106 94 276 94t270 -95q106 -93 106 -249t-143 -250q119 -50 186 -144t66 -213q0 -184 -136 -301q-136 -116 -352 -116t-352 116q-135 117 -135 301z" />
    <glyph glyph-name="nine" unicode="9" 
d="M581 1204q-137 0 -225 -94t-88 -227t89 -229t223 -95q134 0 224 95q89 94 89 228t-88 228t-224 94zM563 422q-199 0 -331 132t-132 327t136 331t347 136q212 0 345 -134t133 -325q0 -190 -125 -340l-467 -569l-125 94l305 362q-14 -14 -86 -14z" />
    <glyph glyph-name="colon" unicode=":" horiz-adv-x="432" 
d="M102 92q0 47 33 80t80 33t80 -33t33 -80t-33 -80t-80 -33t-80 33t-33 80zM102 838q0 47 34 81q34 33 79 33t79 -34t34 -80q0 -47 -33 -80t-80 -33t-80 33t-33 80z" />
    <glyph glyph-name="semicolon" unicode=";" horiz-adv-x="450" 
d="M197 -281h-121l100 469h164zM229 725q-47 0 -77 33q-35 33 -35 81t33 81q34 32 80 32t80 -34t34 -78q0 -45 -33 -82q-35 -33 -82 -33z" />
    <glyph glyph-name="less" unicode="&#x3c;" horiz-adv-x="1114" 
d="M1020 109l-877 380v107l877 381v-152l-674 -282l674 -285v-149z" />
    <glyph glyph-name="equal" unicode="=" 
d="M1038 649h-913v133h913v-133zM1038 342h-913v133h913v-133z" />
    <glyph glyph-name="greater" unicode="&#x3e;" 
d="M1020 489l-877 -380v149l674 285l-674 282v152l877 -381v-107z" />
    <glyph glyph-name="question" unicode="?" horiz-adv-x="976" 
d="M434 205q47 0 80 -33t33 -80t-33 -80q-33 -32 -80 -32t-80 32t-32 80q0 47 32 80q33 33 80 33zM450 1194q-197 0 -278 -178l-133 65q43 119 154 197q115 70 253 70q184 0 304 -121t120 -289t-98 -280t-252 -134l-18 -178h-140l-16 283q180 0 270 90q90 91 90 205t-77 192
t-179 78z" />
    <glyph glyph-name="at" unicode="@" horiz-adv-x="1884" 
d="M932 213q112 0 186 81t74 207t-74 201q-72 78 -186 78t-193 -84q-77 -84 -77 -200t78 -199q78 -84 192 -84zM950 -287q-344 1 -576 225t-231 559q0 335 238 573q237 238 567 237q330 0 561 -213t232 -523q0 -203 -89 -329t-229 -125q-166 0 -211 143q-98 -164 -313 -164
q-145 0 -256 120t-111 282t109 282q111 119 258 119q186 0 293 -141v121h125v-473q0 -76 28 -124t87 -49q84 -1 136 95t52 243q0 266 -190 445q-186 180 -474 180t-486 -206q-200 -206 -200 -494t199 -482q199 -193 483 -192q178 0 328 72l49 -99q-156 -82 -379 -82z" />
    <glyph glyph-name="A" unicode="A" horiz-adv-x="1427" 
d="M594 858l-225 -465h688l-223 467l-121 279q-47 -125 -119 -281zM184 0h-168l627 1327h141l627 -1327h-170l-123 258h-811z" />
    <glyph glyph-name="B" unicode="B" horiz-adv-x="1366" 
d="M319 1182v-367h461q88 0 140 50t51 132q0 82 -58 133q-53 51 -153 52h-441zM319 670v-525h443q158 0 248 72q92 67 92 189t-81 193t-222 71h-480zM772 0h-616v1327h616q166 0 268 -88t103 -233q0 -78 -45 -150t-105 -92q121 -23 201 -122t80 -236q0 -184 -138 -295
t-364 -111z" />
    <glyph glyph-name="C" unicode="C" horiz-adv-x="1314" 
d="M94 663q0 285 200 485t478 200q280 0 473 -172l-100 -113q-149 135 -363 135t-365 -157t-151 -379t150 -377q150 -156 374 -156t384 164l104 -113q-201 -200 -494 -200q-294 0 -492 198t-198 485z" />
    <glyph glyph-name="D" unicode="D" horiz-adv-x="1447" 
d="M659 0h-503v1327h503q311 -1 503 -193t192 -470t-192 -472q-192 -192 -503 -192zM319 1182v-1037h330q233 0 385 146q148 147 148 373t-148 371q-148 146 -385 147h-330z" />
    <glyph glyph-name="E" unicode="E" horiz-adv-x="1263" 
d="M1190 0h-1034v1327h1005v-145h-842v-402h787v-143h-787v-492h871v-145z" />
    <glyph glyph-name="F" unicode="F" horiz-adv-x="1140" 
d="M319 0h-163v1327h952v-145h-789v-402h660v-143h-660v-637z" />
    <glyph glyph-name="G" unicode="G" horiz-adv-x="1495" 
d="M94 662q0 286 200 486t478 200t477 -174l-102 -115q-152 139 -367 139q-214 0 -364 -156t-150 -378t150 -379q150 -156 370 -156q123 0 233 57t181 154v274h-291v142h451v-477q-92 -139 -243 -219t-331 -80q-296 0 -494 198t-198 484z" />
    <glyph glyph-name="H" unicode="H" horiz-adv-x="1406" 
d="M319 0h-163v1327h163v-547h768v547h164v-1327h-164v635h-768v-635z" />
    <glyph glyph-name="I" unicode="I" horiz-adv-x="475" 
d="M319 0h-163v1327h163v-1327z" />
    <glyph glyph-name="J" unicode="J" horiz-adv-x="1112" 
d="M469 129q160 0 252 103t92 309v786h164v-797q0 -276 -141 -413t-365 -137q-141 0 -248 65q-111 61 -170 182l119 90q102 -188 297 -188z" />
    <glyph glyph-name="K" unicode="K" horiz-adv-x="1318" 
d="M319 0h-163v1327h163v-850q59 82 127 160l611 690h198l-528 -612l571 -715h-196l-481 600l-302 -338v-262z" />
    <glyph glyph-name="L" unicode="L" horiz-adv-x="1230" 
d="M1157 0h-1001v1327h163v-1182h838v-145z" />
    <glyph glyph-name="M" unicode="M" horiz-adv-x="1679" 
d="M319 0h-163v1327h145l158 -225l381 -529l379 529l157 225h148v-1327h-164v1047q-39 -61 -131 -195l-389 -547l-394 549l-127 193v-1047z" />
    <glyph glyph-name="N" unicode="N" horiz-adv-x="1441" 
d="M319 0h-163v1327h159l635 -823q68 -86 148 -213l24 -39v1075h164v-1327h-164l-614 797q-88 111 -164 231l-25 39v-1067z" />
    <glyph glyph-name="O" unicode="O" horiz-adv-x="1572" 
d="M786 1348q290 0 492 -201q201 -201 201 -485t-200 -483t-494 -199q-295 0 -493 198t-198 484q0 284 201 485t491 201zM1307 664q0 222 -151 378t-371 156q-219 0 -369 -156t-150 -378t150 -379q150 -156 370 -156t370 157q151 157 151 378z" />
    <glyph glyph-name="P" unicode="P" horiz-adv-x="1361" 
d="M319 1182v-705h396q174 0 274 101q107 100 107 250t-108 252q-108 101 -271 102h-398zM319 0h-163v1327h544q266 0 417 -141q151 -140 151 -356t-151 -357t-419 -141h-379v-332z" />
    <glyph glyph-name="Q" unicode="Q" horiz-adv-x="1570" 
d="M786 129q182 0 314 107l-178 180l104 104l178 -178q102 145 103 322q0 222 -151 378t-371 156q-219 0 -369 -156t-150 -378t150 -379q150 -156 370 -156zM1479 664q0 -244 -158 -439l129 -127l-107 -106l-129 129q-186 -141 -428 -141q-296 0 -494 198t-198 484t201 486
t491 200t492 -200q201 -200 201 -484z" />
    <glyph glyph-name="R" unicode="R" horiz-adv-x="1361" 
d="M319 1182v-705h396q174 0 274 101q107 100 107 250t-108 252q-108 101 -271 102h-398zM319 0h-163v1327h542q268 0 419 -141t151 -357q0 -153 -81 -271t-222 -173l313 -385h-207l-268 338q-51 -6 -242 -6h-242v-332z" />
    <glyph glyph-name="S" unicode="S" horiz-adv-x="1226" 
d="M610 129q135 0 242 61q109 66 109 181q0 80 -68 137q-92 64 -256 102q-163 38 -270 81q-107 42 -157 111t-60 185q0 168 138 264t324 97q252 0 451 -150l-76 -127q-170 127 -375 127q-102 0 -196 -52t-94 -157q0 -72 63 -129q56 -44 248 -92q192 -47 291 -94
q201 -92 209 -303q0 -191 -156 -291t-367 -100q-315 -1 -516 202l74 125q176 -178 442 -178z" />
    <glyph glyph-name="T" unicode="T" horiz-adv-x="1228" 
d="M696 0h-164v1182h-491v145h1147v-145h-492v-1182z" />
    <glyph glyph-name="U" unicode="U" horiz-adv-x="1368" 
d="M1233 512q0 -236 -160 -384t-390 -148t-390 147q-158 152 -158 385v815h164v-815q0 -168 111 -276q112 -106 276 -106t270 106q113 106 113 276v815h164v-815z" />
    <glyph glyph-name="V" unicode="V" horiz-adv-x="1368" 
d="M756 -6h-142l-594 1333h170l396 -883l98 -247q47 135 96 247l398 883h170z" />
    <glyph glyph-name="W" unicode="W" horiz-adv-x="1910" 
d="M627 -6h-162l-445 1333h166l308 -924l53 -180q16 76 47 180l276 924h170l277 -924l47 -180q29 104 53 180l309 924h164l-444 -1333h-162l-280 913q-25 72 -41 178l-7 31q-18 -111 -49 -209z" />
    <glyph glyph-name="X" unicode="X" horiz-adv-x="1249" 
d="M213 0h-193l510 664l-505 663h192l289 -366q63 -80 100 -146l19 -29q78 119 123 177l286 364h191l-506 -663l510 -664h-193l-288 371l-123 172q-78 -115 -123 -174z" />
    <glyph glyph-name="Y" unicode="Y" horiz-adv-x="1275" 
d="M721 0h-164v629l-537 698h193l268 -340q72 -92 135 -186l23 -35q90 131 160 221l264 340h192l-534 -696v-631z" />
    <glyph glyph-name="Z" unicode="Z" horiz-adv-x="1232" 
d="M1159 0h-1085v135l764 932q58 71 106 115h-833v145h1028v-135l-754 -920l-111 -127h885v-145z" />
    <glyph glyph-name="bracketleft" unicode="[" horiz-adv-x="573" 
d="M510 -203h-391v1624h391v-118h-231v-1387h231v-119z" />
    <glyph glyph-name="backslash" unicode="\" horiz-adv-x="1165" 
d="M1163 -39h-157l-1018 1458h157z" />
    <glyph glyph-name="bracketright" unicode="]" horiz-adv-x="573" 
d="M455 -203h-392v119h234v1387h-234v118h392v-1624z" />
    <glyph glyph-name="asciicircum" unicode="^" horiz-adv-x="1126" 
d="M274 662h-151l393 665h94l394 -665h-152l-289 471z" />
    <glyph glyph-name="underscore" unicode="_" horiz-adv-x="983" 
d="M989 -240h-995v103h995v-103z" />
    <glyph glyph-name="grave" unicode="`" horiz-adv-x="696" 
d="M528 1157h-147l-193 273h174z" />
    <glyph glyph-name="a" unicode="a" horiz-adv-x="1220" 
d="M588 131q145 1 243 105q99 104 99 260t-96 263t-244 107q-147 0 -248 -106q-98 -108 -98 -262t98 -262q101 -105 246 -105zM565 -20q-205 0 -343 150t-138 369t138 369t343 150q240 0 365 -193v172h155v-997h-155v170q-123 -190 -365 -190z" />
    <glyph glyph-name="b" unicode="b" horiz-adv-x="1214" 
d="M291 498q0 -154 96 -262q99 -104 245 -104t242 104q96 106 96 261t-96 262t-242 107t-245 -106q-96 -108 -96 -262zM291 0h-156v1348h156v-523q127 193 360 193q203 0 341 -151t138 -369t-138 -368q-138 -151 -341 -150q-235 0 -360 190v-170z" />
    <glyph glyph-name="c" unicode="c" horiz-adv-x="1038" 
d="M84 497q0 217 154 369t366 152q213 0 363 -137l-101 -111q-102 96 -256 96t-260 -106t-106 -261t106 -261t272 -106t275 114l92 -115q-158 -151 -376 -151q-217 0 -373 150t-156 367z" />
    <glyph glyph-name="d" unicode="d" horiz-adv-x="1214" 
d="M585 131q144 0 241 103q98 102 98 260t-96 265t-242 107q-145 0 -244 -106q-98 -108 -98 -262t98 -262q99 -105 243 -105zM565 -20q-205 0 -343 150t-138 369t138 369t343 150q113 0 206 -51t153 -142v523h155v-1348h-155v170q-121 -190 -359 -190z" />
    <glyph glyph-name="e" unicode="e" horiz-adv-x="1146" 
d="M84 492q0 222 145 374t349 152t344 -152q141 -152 141 -360l-4 -66h-811q18 -141 120 -230t242 -89q180 0 308 115l73 -113q-168 -143 -382 -143t-371 145q-154 146 -154 367zM246 563h659q-14 137 -109 226t-218 89q-122 0 -218 -88q-96 -90 -114 -227z" />
    <glyph glyph-name="f" unicode="f" horiz-adv-x="626" 
d="M299 0h-156v864h-161v133h161v66q0 178 84 254t199 76q70 0 131 -21q59 -16 94 -41l25 -22l-72 -107q-84 55 -160 55q-143 0 -143 -198v-62h315v-133h-317v-864z" />
    <glyph glyph-name="g" unicode="g" horiz-adv-x="1214" 
d="M913 530q0 146 -95 241t-239 95q-143 0 -239 -95t-96 -241t94 -239q96 -90 240 -90t241 90q94 93 94 239zM84 535q0 209 137 346t344 137q240 0 359 -193v172h155v-774q0 -121 -39 -218q-83 -207 -282 -271q-104 -35 -185 -35q-238 0 -395 154l78 102q125 -125 313 -125
q70 0 144 33q205 70 211 334v43q-117 -190 -359 -191q-205 1 -343 139t-138 347z" />
    <glyph glyph-name="h" unicode="h" horiz-adv-x="1112" 
d="M291 0h-156v1348h156v-510q111 180 340 180q178 0 272 -109q94 -102 94 -301v-608h-155v584q0 141 -60 213q-61 69 -194 69t-215 -89t-82 -214v-563z" />
    <glyph glyph-name="i" unicode="i" horiz-adv-x="425" 
d="M215 1163q-43 0 -73 31t-29 73q-1 43 29 73t74 30t73 -31t29 -73t-30 -72q-30 -31 -73 -31zM291 0h-156v997h156v-997z" />
    <glyph glyph-name="j" unicode="j" horiz-adv-x="425" 
d="M215 1163q-43 0 -73 31t-29 73q-1 43 29 73t74 30t73 -31t29 -73t-30 -72q-30 -31 -73 -31zM135 156v841h156v-825q-1 -381 -271 -516l-53 123q168 100 168 377z" />
    <glyph glyph-name="k" unicode="k" horiz-adv-x="1054" 
d="M291 0h-156v1348h156v-899l483 548h201l-397 -442l466 -555h-200l-365 446l-188 -215v-231z" />
    <glyph glyph-name="l" unicode="l" horiz-adv-x="425" 
d="M291 0h-156v1348h156v-1348z" />
    <glyph glyph-name="m" unicode="m" horiz-adv-x="1753" 
d="M291 0h-156v997h156v-159q49 86 133 133t182 47q242 0 322 -199q51 95 145 147t199 52q182 0 274 -104t92 -304v-610h-155v584q0 145 -58 211q-53 71 -180 71t-204 -79t-76 -205v-582h-156v584q0 143 -56 213q-57 69 -181 69t-203 -86q-78 -90 -78 -213v-567z" />
    <glyph glyph-name="n" unicode="n" horiz-adv-x="1112" 
d="M291 0h-156v997h156v-159q113 180 340 180q180 0 274 -107q92 -109 92 -303v-608h-155v584q0 141 -58 212q-58 70 -188 70q-129 0 -217 -87t-88 -220v-559z" />
    <glyph glyph-name="o" unicode="o" horiz-adv-x="1216" 
d="M244 498q0 -154 106 -260t258 -106t258 106t107 260q0 154 -108 262t-257 107q-148 1 -256 -107t-108 -262zM84 499q0 215 154 367t370 152t371 -152q154 -152 154 -366t-154 -369q-158 -151 -371 -151t-370 151q-154 154 -154 368z" />
    <glyph glyph-name="p" unicode="p" horiz-adv-x="1214" 
d="M291 498q0 -154 96 -262q99 -104 245 -104t242 104q96 106 96 261t-96 262t-242 107t-245 -106q-96 -108 -96 -262zM651 1018q203 0 341 -151t138 -369t-138 -368q-138 -151 -341 -150q-109 0 -206 53t-154 137v-451h-156v1278h156v-172q127 193 360 193z" />
    <glyph glyph-name="q" unicode="q" horiz-adv-x="1214" 
d="M585 131q144 -1 241 105q98 106 98 263t-99 261q-94 106 -239 106t-244 -106q-98 -108 -98 -262t98 -262q99 -105 243 -105zM565 -20q-205 0 -343 150t-138 369t138 369t343 150q113 0 206 -51t153 -142v172h155v-1278h-155v451q-121 -190 -359 -190z" />
    <glyph glyph-name="r" unicode="r" horiz-adv-x="716" 
d="M291 0h-156v997h156v-211q47 109 145 168q100 63 240 64v-172q-174 0 -281 -101q-104 -104 -104 -305v-440z" />
    <glyph glyph-name="s" unicode="s" horiz-adv-x="966" 
d="M473 131q106 0 178 42t72 113t-80 103q-51 25 -177 55t-232 90q-106 58 -107 192q0 134 111 213t247 79q182 0 344 -111l-75 -121q-117 80 -267 80q-84 0 -142 -38t-58 -98t59 -88q60 -27 190 -57t228 -87q119 -63 119 -212t-123 -229q-127 -78 -285 -77
q-244 -1 -391 155l76 125q127 -129 313 -129z" />
    <glyph glyph-name="t" unicode="t" horiz-adv-x="735" 
d="M176 299v565h-149v133h149v222l156 24v-246h342v-133h-342v-536q0 -209 141 -209q74 0 143 41l21 14l51 -121q-106 -73 -234 -73t-203 80t-75 239z" />
    <glyph glyph-name="u" unicode="u" horiz-adv-x="1099" 
d="M115 381v616h155v-583q0 -283 256 -283q125 0 203 86q80 82 80 225v555h156v-997h-156v154q-106 -174 -322 -174q-180 0 -274 110q-98 107 -98 291z" />
    <glyph glyph-name="v" unicode="v" horiz-adv-x="1044" 
d="M594 -6h-143l-441 1003h162l279 -635l71 -198q35 117 72 196l278 637h162z" />
    <glyph glyph-name="w" unicode="w" horiz-adv-x="1458" 
d="M494 -6h-142l-342 1003h154l225 -661l35 -146q12 78 31 146l196 661h156l199 -661l30 -146q10 66 35 146l223 661h154l-340 -1003h-141l-205 665l-33 146q-12 -84 -31 -146z" />
    <glyph glyph-name="x" unicode="x" horiz-adv-x="966" 
d="M193 0h-179l373 504l-373 493h179l198 -264l92 -129l291 393h178l-372 -495l372 -502h-178l-194 258l-97 141q-61 -94 -96 -141z" />
    <glyph glyph-name="y" unicode="y" horiz-adv-x="1071" 
d="M217 -301v147q90 0 142 37t98 137l20 46l-454 931h165l295 -624l68 -156l67 162l269 618h162l-467 -1046q-74 -170 -181 -215q-82 -37 -184 -37z" />
    <glyph glyph-name="z" unicode="z" horiz-adv-x="927" 
d="M874 0h-821v123l482 588q53 68 110 125l21 20h-592v141h782v-123l-479 -579l-135 -154h632v-141z" />
    <glyph glyph-name="braceleft" unicode="{" horiz-adv-x="790" 
d="M139 541h-30v127h30q139 0 140 120v175q0 469 362 469h86v-132q-163 0 -227 -76t-64 -259v-162q0 -180 -141 -201q141 -37 141 -199v-159q0 -182 64 -259t227 -77v-131h-86q-362 0 -362 467v176q-1 121 -140 121z" />
    <glyph glyph-name="bar" unicode="|" horiz-adv-x="440" 
d="M283 -387h-129v1898h129v-1898z" />
    <glyph glyph-name="braceright" unicode="}" horiz-adv-x="790" 
d="M150 -223h-87v131q162 0 224 76q66 74 65 260v159q0 162 144 199q-143 20 -144 201v162q0 186 -65 260q-61 76 -224 75v132h87q362 0 362 -469v-175q0 -121 139 -120h31v-127h-31q-139 0 -139 -121v-176q0 -467 -362 -467z" />
    <glyph glyph-name="asciitilde" unicode="~" horiz-adv-x="1136" 
d="M309 432h-155q0 108 57 178t168 70q75 0 189 -59t161 -59t72 28q25 29 24 69h156q0 -109 -57 -179q-56 -70 -154 -68q-98 0 -213 59t-157 59t-66 -28t-25 -70z" />
    <glyph glyph-name="uni00A0" unicode="&#xa0;" horiz-adv-x="1327" 
 />
    <glyph glyph-name="exclamdown" unicode="&#xa1;" horiz-adv-x="462" 
d="M319 -348h-174l19 979h137zM119 903q0 47 34 81q35 34 79 34t78 -34t34 -81t-33 -80t-79 -33t-80 33q-33 33 -33 80z" />
    <glyph glyph-name="cent" unicode="&#xa2;" 
d="M733 -88h-125v229q-193 25 -323 168q-135 143 -135 347t135 348t323 167v226h125v-228q166 -12 297 -131l-98 -110q-110 96 -260 96t-256 -106t-106 -260t104 -263q106 -106 266 -106q82 -1 159 31t124 83l90 -116q-133 -127 -320 -146v-229z" />
    <glyph glyph-name="sterling" unicode="&#xa3;" 
d="M1065 0h-967v129h162v471h-151v121h151v223q0 188 120 296t308 108t322 -127l-92 -111q-106 94 -226 94t-194 -74q-78 -72 -78 -180v-229h407v-121h-407v-457h645v-143z" />
    <glyph glyph-name="currency" unicode="&#xa4;" 
d="M352 589q0 -95 66 -167q68 -68 165 -68t163 69t65 167q0 98 -68 166q-63 70 -160 70t-165 -70q-66 -72 -66 -167zM205 590q0 127 74 221l-154 158l80 80l155 -160q102 72 220 72t221 -72l157 160l80 -80l-155 -158q75 -96 75 -221t-75 -221l155 -156l-80 -80l-157 158
q-103 -72 -221 -72t-220 72l-155 -158l-80 82l154 154q-74 94 -74 221z" />
    <glyph glyph-name="yen" unicode="&#xa5;" 
d="M662 0h-160v254h-283v111h283v137h-281v110h281v39l-439 676h185l256 -401l78 -144q41 88 75 144l256 401h187l-438 -676v-39h280v-110h-280v-137h280v-111h-280v-254z" />
    <glyph glyph-name="brokenbar" unicode="&#xa6;" horiz-adv-x="423" 
d="M276 -389h-129v985h129v-985zM276 786h-129v861h129v-861z" />
    <glyph glyph-name="section" unicode="&#xa7;" horiz-adv-x="1062" 
d="M524 98q86 0 148 27q70 27 69 92q-1 41 -33 63t-145 64l-215 78q-254 88 -254 303q0 74 41 135q37 61 96 86q-70 51 -69 148q0 122 106 188t248 66q217 0 387 -103l-65 -121q-150 82 -320 82q-82 0 -141 -26q-55 -31 -55 -86q0 -29 22 -58q35 -31 156 -73l211 -76
q258 -88 258 -307q0 -72 -43 -134q-45 -61 -109 -81q37 -19 62 -59t24 -91q0 -129 -115 -195q-113 -61 -248 -61t-241 37q-105 41 -168 94l74 121q131 -113 319 -113zM815 584q0 109 -129 161l-274 105q-35 14 -56 14q-45 0 -73 -41q-33 -35 -33 -90q0 -121 164 -182
l174 -66q100 -35 117 -34q45 0 77 41q33 35 33 92z" />
    <glyph glyph-name="dieresis" unicode="&#xa8;" horiz-adv-x="696" 
d="M510 1169q-38 0 -66 27q-26 27 -26 65q0 39 26 65t66 26t66 -27t26 -65t-27 -64q-27 -27 -65 -27zM187 1169q-39 0 -65 27t-26 65q0 39 27 65t65 26t64 -27q27 -27 27 -65t-27 -64q-27 -27 -65 -27z" />
    <glyph glyph-name="copyright" unicode="&#xa9;" horiz-adv-x="1531" 
d="M767 55q249 0 425 180q176 181 176 429t-175 428t-425 180t-428 -180q-176 -182 -176 -429t176 -430q178 -178 427 -178zM788 248q-176 0 -296 120t-121 292q0 171 120 293q119 122 287 122t293 -119l-63 -63q-102 90 -228 90t-219 -94q-90 -97 -90 -231t92 -227t226 -93
t245 121l64 -66q-134 -145 -310 -145zM82 664q0 284 201 484t483 200t484 -201q200 -201 200 -483t-201 -484q-201 -201 -483 -201t-483 201t-201 484z" />
    <glyph glyph-name="ordfeminine" unicode="&#xaa;" horiz-adv-x="753" 
d="M59 870q0 119 103 172q100 55 248 56q47 0 114 -11q-14 143 -164 144q-98 0 -167 -43l-23 -14l-53 96q29 29 108 53q80 25 146 25q289 0 288 -326v-344h-127v72q-94 -86 -216 -86t-190 56q-67 56 -67 150zM188 884q0 -52 36 -78t95 -26q111 0 162 50t51 94v61
q-72 10 -145 10t-137 -28q-62 -31 -62 -83z" />
    <glyph glyph-name="guillemotleft" unicode="&#xab;" horiz-adv-x="923" 
d="M774 115l-350 342v80l350 342l78 -78l-285 -303l285 -305zM416 115l-348 342v80l348 342l80 -78l-287 -303l285 -305z" />
    <glyph glyph-name="logicalnot" unicode="&#xac;" 
d="M893 223v328h-768v133h913l-2 -461h-143z" />
    <glyph glyph-name="registered" unicode="&#xae;" horiz-adv-x="1531" 
d="M767 55q249 0 425 180q176 181 176 429t-175 428t-425 180t-428 -180q-176 -182 -176 -429t176 -430q178 -178 427 -178zM569 969v-459h248q94 0 160 65q66 72 65 164q0 92 -64 161t-161 69h-248zM569 258h-96v807h344q133 0 229 -96t97 -230q0 -188 -158 -284l150 -197
h-123l-121 162q-27 -8 -74 -8h-248v-154zM82 664q0 284 201 484t483 200t484 -201q200 -201 200 -483t-201 -484q-201 -201 -483 -201t-483 201t-201 484z" />
    <glyph glyph-name="macron" unicode="&#xaf;" horiz-adv-x="696" 
d="M553 1167h-410v121h410v-121z" />
    <glyph glyph-name="degree" unicode="&#xb0;" horiz-adv-x="743" 
d="M209 1067q0 -68 46 -115q47 -47 109 -47t109 49t47 114t-47 113t-111 48t-108 -47q-45 -47 -45 -115zM364 784q-116 0 -199 83t-83 201t83 201t200 83t201 -84t83 -200q0 -116 -84 -200q-85 -84 -201 -84z" />
    <glyph glyph-name="plusminus" unicode="&#xb1;" 
d="M508 598h-383v133h383v305h143v-305h387v-133h-387v-305h-143v305zM1038 61h-913v134h913v-134z" />
    <glyph glyph-name="uni00B2" unicode="&#xb2;" horiz-adv-x="792" 
d="M713 596h-650v96q263 228 375 352t112 209t-46 129q-47 44 -131 43q-131 0 -228 -114l-73 92q133 145 311 145q143 0 226 -76t83 -201q0 -124 -101 -250t-323 -302h445v-123z" />
    <glyph glyph-name="uni00B3" unicode="&#xb3;" horiz-adv-x="821" 
d="M346 707q125 0 184 59q62 55 62 138t-55 134q-55 52 -143 52t-152 -41l-52 79l314 287h-410v121h592v-106l-256 -242h8q121 0 209 -84t88 -208t-100 -218q-95 -94 -279 -94t-295 112l70 95q90 -84 215 -84z" />
    <glyph glyph-name="acute" unicode="&#xb4;" horiz-adv-x="696" 
d="M313 1157h-147l166 273h174z" />
    <glyph glyph-name="mu" unicode="&#xb5;" horiz-adv-x="1122" 
d="M279 -281h-156v1278h156v-563q0 -303 247 -303q129 0 211 92t82 271v503h158v-438q0 -352 135 -493l-100 -107q-113 106 -140 229q-102 -209 -344 -208q-168 0 -249 110v-371z" />
    <glyph glyph-name="paragraph" unicode="&#xb6;" horiz-adv-x="1099" 
d="M653 0h-123v526q-186 14 -307 118t-121 276t125 290t303 117h404v-1327h-123v1208h-158v-1208z" />
    <glyph glyph-name="periodcentered" unicode="&#xb7;" horiz-adv-x="333" 
d="M55 579q0 48 35 76q29 35 76 35t80 -33t33 -79t-32 -80q-32 -33 -79 -33t-80 33t-33 81z" />
    <glyph glyph-name="cedilla" unicode="&#xb8;" horiz-adv-x="696" 
d="M306 -354q76 0 120 30q39 33 39 70q0 72 -85 73t-126 -55l-88 33l125 209h100l-76 -131q41 19 101 19t109 -39q48 -39 48 -111q1 -72 -71 -126t-190 -54t-206 57l46 74q78 -49 154 -49z" />
    <glyph glyph-name="uni00B9" unicode="&#xb9;" horiz-adv-x="655" 
d="M463 596h-133v760l-215 -158l-60 94l305 244h103v-940z" />
    <glyph glyph-name="ordmasculine" unicode="&#xba;" horiz-adv-x="808" 
d="M404 1222q-90 0 -154 -63t-64 -153t64 -154t153 -64t153 64t64 154t-62 153q-64 63 -154 63zM404 664q-144 0 -244 100t-100 242t100 241q100 101 243 101t245 -102t102 -240t-102 -240q-100 -102 -244 -102z" />
    <glyph glyph-name="guillemotright" unicode="&#xbb;" horiz-adv-x="923" 
d="M508 115l-78 78l285 305l-285 303l78 78l348 -342v-80zM150 115l-78 78l284 305l-284 303l78 78l350 -342v-80z" />
    <glyph glyph-name="onequarter" unicode="&#xbc;" horiz-adv-x="1832" 
d="M545 -31l-90 51l815 1358l90 -51zM463 391h-133v760l-215 -158l-60 94l305 244h103v-940zM1602 0h-136v199h-440v96l387 659l113 -55l-344 -577h284v213h136v-213h110v-123h-110v-199z" />
    <glyph glyph-name="onehalf" unicode="&#xbd;" horiz-adv-x="1980" 
d="M545 -31l-90 51l815 1358l90 -51zM463 391h-133v760l-215 -158l-60 94l305 244h103v-940zM1894 0h-651v94q265 228 377 350t113 226q0 70 -47 112q-45 45 -132 45q-131 0 -229 -112l-74 92q131 143 312 143q141 0 227 -73q84 -78 84 -205t-131 -277q-86 -90 -138 -138
t-169 -146q96 10 123 10h335v-121z" />
    <glyph glyph-name="threequarters" unicode="&#xbe;" horiz-adv-x="1982" 
d="M719 -31l-90 51l815 1358l90 -51zM346 502q125 0 184 59q62 55 62 138t-55 134t-143 51t-152 -40l-52 80l314 286h-410v121h592v-106l-256 -242h8q121 0 209 -84t88 -208t-100 -218q-95 -94 -279 -94t-295 113l70 94q90 -84 215 -84zM1778 0h-136v199h-440v96l387 659
l113 -55l-344 -577h284v213h136v-213h110v-123h-110v-199z" />
    <glyph glyph-name="questiondown" unicode="&#xbf;" horiz-adv-x="976" 
d="M430 908q0 48 33 81t81 33t81 -33t33 -81t-34 -81q-32 -33 -80 -33t-81 33t-33 81zM532 -348q-188 0 -307 121t-119 289t100 280t253 133l16 178h139l17 -282q-172 0 -266 -85q-95 -86 -95 -204t80 -198t180 -79q100 -1 170 49t105 130l133 -64q-45 -124 -155 -196
t-251 -72z" />
    <glyph glyph-name="Agrave" unicode="&#xc0;" horiz-adv-x="1427" 
d="M786 1430h-147l-193 272h175zM594 858l-225 -465h688l-223 467l-121 279q-47 -125 -119 -281zM184 0h-168l627 1327h141l627 -1327h-170l-123 258h-811z" />
    <glyph glyph-name="Aacute" unicode="&#xc1;" horiz-adv-x="1427" 
d="M782 1430h-147l166 272h174zM594 858l-225 -465h688l-223 467l-121 279q-47 -125 -119 -281zM184 0h-168l627 1327h141l627 -1327h-170l-123 258h-811z" />
    <glyph glyph-name="Acircumflex" unicode="&#xc2;" horiz-adv-x="1427" 
d="M580 1430h-131l180 272h174l180 -272h-133l-135 178zM594 858l-225 -465h688l-223 467l-121 279q-47 -125 -119 -281zM184 0h-168l627 1327h141l627 -1327h-170l-123 258h-811z" />
    <glyph glyph-name="Atilde" unicode="&#xc3;" horiz-adv-x="1427" 
d="M547 1401h-101q0 92 40 150q77 112 239 10q78 -47 100 -48q59 0 60 97h98q0 -92 -40 -150t-100 -59q-60 0 -138 48t-99 48q-59 0 -59 -96zM594 858l-225 -465h688l-223 467l-121 279q-47 -125 -119 -281zM184 0h-168l627 1327h141l627 -1327h-170l-123 258h-811z" />
    <glyph glyph-name="Adieresis" unicode="&#xc4;" horiz-adv-x="1427" 
d="M782 1512q0 38 27 65t66 27t65 -27t27 -65q0 -38 -27 -64q-28 -26 -66 -27q-38 0 -63 27q-29 26 -29 64zM552 1604q38 0 64 -27t27 -65q0 -38 -27 -64q-26 -26 -64 -27q-38 1 -64 27t-27 64q0 38 26 65q27 27 65 27zM594 858l-225 -465h688l-223 467l-121 279
q-47 -125 -119 -281zM184 0h-168l627 1327h141l627 -1327h-170l-123 258h-811z" />
    <glyph glyph-name="Aring" unicode="&#xc5;" horiz-adv-x="1427" 
d="M713 1704q-45 0 -78 -34t-33 -84t32 -84t79 -34t79 34t32 84t-33 85q-33 33 -78 33zM915 1588q0 -84 -59 -144q-60 -61 -144 -61t-143 61t-59 144q0 82 59 142t143 60t144 -59q59 -59 59 -143zM594 858l-225 -465h688l-223 467l-121 279q-47 -125 -119 -281zM184 0h-168
l627 1327h141l627 -1327h-170l-123 258h-811z" />
    <glyph glyph-name="AE" unicode="&#xc6;" horiz-adv-x="1937" 
d="M946 393v787q-77 -138 -108 -185l-387 -602h495zM1835 1327v-145h-725v-400h672v-143h-672v-494h754v-145h-918v258h-581l-166 -258h-183l863 1327h956z" />
    <glyph glyph-name="Ccedilla" unicode="&#xc7;" horiz-adv-x="1314" 
d="M724 -354q76 0 120 30q39 33 39 70q0 72 -85 73t-126 -55l-88 33l112 189q-260 33 -432 223q-170 195 -170 467t200 472t479 200t472 -172l-100 -113q-149 135 -363 135t-365 -157t-151 -379t150 -377q150 -156 374 -156t384 164l104 -113q-199 -199 -485 -200l-60 -105
q39 19 101 19t109 -39q48 -39 48 -111q1 -72 -71 -126t-190 -54t-206 57l45 74q79 -49 155 -49z" />
    <glyph glyph-name="Egrave" unicode="&#xc8;" horiz-adv-x="1263" 
d="M799 1430h-148l-192 272h174zM1190 0h-1034v1327h1005v-145h-842v-402h787v-143h-787v-492h871v-145z" />
    <glyph glyph-name="Eacute" unicode="&#xc9;" horiz-adv-x="1263" 
d="M688 1430h-147l166 272h174zM1190 0h-1034v1327h1005v-145h-842v-402h787v-143h-787v-492h871v-145z" />
    <glyph glyph-name="Ecircumflex" unicode="&#xca;" horiz-adv-x="1263" 
d="M553 1430h-131l180 272h174l180 -272h-133l-135 178zM1190 0h-1034v1327h1005v-145h-842v-402h787v-143h-787v-492h871v-145z" />
    <glyph glyph-name="Edieresis" unicode="&#xcb;" horiz-adv-x="1263" 
d="M1190 0h-1034v1327h1005v-145h-842v-402h787v-143h-787v-492h871v-145zM760 1531q0 34 26 64q29 27 67 27t65 -27q26 -27 26 -65t-26 -64t-65 -26q-38 0 -67 26q-26 31 -26 65zM438 1531q0 39 27 65t65 26t64 -27q27 -27 27 -65t-27 -64t-65 -26q-39 0 -65 26t-26 65z
" />
    <glyph glyph-name="Igrave" unicode="&#xcc;" horiz-adv-x="475" 
d="M319 0h-163v1327h163v-1327zM334 1430h-148l-192 272h174z" />
    <glyph glyph-name="Iacute" unicode="&#xcd;" horiz-adv-x="475" 
d="M289 1430h-148l166 272h174zM319 0h-163v1327h163v-1327z" />
    <glyph glyph-name="Icircumflex" unicode="&#xce;" horiz-adv-x="475" 
d="M319 0h-163v1327h163v-1327zM102 1430h-131l181 272h174l180 -272h-133l-135 178z" />
    <glyph glyph-name="Idieresis" unicode="&#xcf;" horiz-adv-x="475" 
d="M319 0h-163v1327h163v-1327zM307 1512q0 38 27 65q28 27 66 27t65 -27t27 -65t-27 -64t-66 -27q-39 0 -63 27q-29 26 -29 64zM77 1604q39 0 65 -27t26 -65t-27 -64t-65 -27q-38 1 -64 27t-26 64t26 65q27 27 65 27z" />
    <glyph glyph-name="Eth" unicode="&#xd0;" horiz-adv-x="1447" 
d="M319 616v-471h349q219 0 366 151t148 368q0 218 -148 368t-366 150h-349v-439h377v-127h-377zM672 0h-516v616h-189v127h189v584h516q290 1 486 -193t196 -472t-197 -469q-192 -193 -485 -193z" />
    <glyph glyph-name="Ntilde" unicode="&#xd1;" horiz-adv-x="1441" 
d="M553 1419h-100q0 93 40 151t101 58t138 -48t99 -48q59 0 60 96h98q0 -92 -40 -150q-76 -110 -238 -12q-76 49 -99 50q-59 -1 -59 -97zM319 0h-163v1327h159l635 -823q68 -86 148 -213l24 -39v1075h164v-1327h-164l-614 797q-88 111 -164 231l-25 39v-1067z" />
    <glyph glyph-name="Ograve" unicode="&#xd2;" horiz-adv-x="1570" 
d="M883 1430h-148l-192 272h174zM786 1348q290 0 492 -201q201 -201 201 -485t-200 -483t-494 -199q-295 0 -493 198t-198 484q0 284 201 485t491 201zM1307 664q0 222 -151 378t-371 156q-219 0 -369 -156t-150 -378t150 -379q150 -156 370 -156t370 157q151 157 151 378z
" />
    <glyph glyph-name="Oacute" unicode="&#xd3;" horiz-adv-x="1570" 
d="M840 1430h-148l166 272h174zM786 1348q290 0 492 -201q201 -201 201 -485t-200 -483t-494 -199q-295 0 -493 198t-198 484q0 284 201 485t491 201zM1307 664q0 222 -151 378t-371 156q-219 0 -369 -156t-150 -378t150 -379q150 -156 370 -156t370 157q151 157 151 378z
" />
    <glyph glyph-name="Ocircumflex" unicode="&#xd4;" horiz-adv-x="1570" 
d="M653 1430h-131l180 272h175l180 -272h-133l-136 178zM786 1348q290 0 492 -201q201 -201 201 -485t-200 -483t-494 -199q-295 0 -493 198t-198 484q0 284 201 485t491 201zM1307 664q0 222 -151 378t-371 156q-219 0 -369 -156t-150 -378t150 -379q150 -156 370 -156
t370 157q151 157 151 378z" />
    <glyph glyph-name="Otilde" unicode="&#xd5;" horiz-adv-x="1570" 
d="M618 1419h-100q0 93 40 151t102 58t138 -48q77 -48 99 -48q59 0 59 96h99q0 -92 -40 -150q-76 -110 -239 -12q-76 49 -98 50q-60 -1 -60 -97zM786 1348q290 0 492 -201q201 -201 201 -485t-200 -483t-494 -199q-295 0 -493 198t-198 484q0 284 201 485t491 201zM1307 664
q0 222 -151 378t-371 156q-219 0 -369 -156t-150 -378t150 -379q150 -156 370 -156t370 157q151 157 151 378z" />
    <glyph glyph-name="Odieresis" unicode="&#xd6;" horiz-adv-x="1570" 
d="M856 1512q0 38 27 65t65 27t66 -27q26 -27 26 -65t-26 -64t-66 -27q-39 0 -63 27q-29 26 -29 64zM626 1604q38 0 64 -27t27 -65q0 -38 -27 -64q-26 -26 -64 -27q-38 1 -64 27t-27 64q0 38 26 65q27 27 65 27zM786 1348q290 0 492 -201q201 -201 201 -485t-200 -483
t-494 -199q-295 0 -493 198t-198 484q0 284 201 485t491 201zM1307 664q0 222 -151 378t-371 156q-219 0 -369 -156t-150 -378t150 -379q150 -156 370 -156t370 157q151 157 151 378z" />
    <glyph glyph-name="multiply" unicode="&#xd7;" 
d="M580 440l-334 -331l-96 98l333 334l-338 338l99 94l336 -336l338 336l100 -96l-340 -336l336 -334l-99 -98z" />
    <glyph glyph-name="Oslash" unicode="&#xd8;" horiz-adv-x="1570" 
d="M786 129q219 0 370 157t151 378q0 264 -207 428l-545 -908q110 -55 231 -55zM266 664q0 -131 54 -243t153 -188l547 910q-111 55 -234 55q-220 0 -370 -156t-150 -378zM786 1348q168 0 312 -74l114 190l82 -49l-112 -188q139 -96 218 -246t79 -317q0 -285 -200 -485
t-493 -199q-174 0 -313 69l-113 -188l-81 47l112 190q-141 96 -219 245t-78 321q0 284 200 484t492 200z" />
    <glyph glyph-name="Ugrave" unicode="&#xd9;" horiz-adv-x="1368" 
d="M801 1430h-148l-192 272h174zM1233 512q0 -236 -160 -384t-390 -148t-390 147q-158 152 -158 385v815h164v-815q0 -168 111 -276q112 -106 276 -106t270 106q113 106 113 276v815h164v-815z" />
    <glyph glyph-name="Uacute" unicode="&#xda;" horiz-adv-x="1368" 
d="M709 1430h-148l166 272h174zM1233 512q0 -236 -160 -384t-390 -148t-390 147q-158 152 -158 385v815h164v-815q0 -168 111 -276q112 -106 276 -106t270 106q113 106 113 276v815h164v-815z" />
    <glyph glyph-name="Ucircumflex" unicode="&#xdb;" horiz-adv-x="1366" 
d="M551 1430h-131l180 272h174l180 -272h-133l-135 178zM1233 512q0 -236 -160 -384t-390 -148t-390 147q-158 152 -158 385v815h164v-815q0 -168 111 -276q112 -106 276 -106t270 106q113 106 113 276v815h164v-815z" />
    <glyph glyph-name="Udieresis" unicode="&#xdc;" horiz-adv-x="1366" 
d="M1233 512q0 -236 -160 -384t-390 -148t-390 147q-158 152 -158 385v815h164v-815q0 -168 111 -276q112 -106 276 -106t270 106q113 106 113 276v815h164v-815zM754 1512q0 38 26 65t66 27t66 -27t26 -65t-27 -64t-65 -27q-38 1 -66 27q-26 26 -26 64zM523 1421
q-39 1 -65 27t-26 64t27 65t65 27t64 -27t26 -65t-26 -64t-65 -27z" />
    <glyph glyph-name="Yacute" unicode="&#xdd;" horiz-adv-x="1275" 
d="M688 1430h-147l166 272h174zM721 0h-164v629l-537 698h193l268 -340q72 -92 135 -186l23 -35q90 131 160 221l264 340h192l-534 -696v-631z" />
    <glyph glyph-name="Thorn" unicode="&#xde;" horiz-adv-x="1218" 
d="M319 965v-594h347q122 0 206 87t84 208t-86 210t-204 89h-347zM319 0h-163v1327h163v-217h361q184 0 315 -130t131 -312t-131 -312t-315 -131h-361v-225z" />
    <glyph glyph-name="germandbls" unicode="&#xdf;" horiz-adv-x="1120" 
d="M311 0h-155v924q0 207 98 313q98 111 262 111t277 -109t112 -264q0 -209 -133 -299q125 -20 207 -119q84 -97 84 -237q-1 -140 -107 -240t-254 -100t-241 81l65 132q64 -63 156 -63t154 65q66 63 66 161t-76 162q-75 64 -218 64h-69v123h14q82 2 139 69q58 60 58 172
t-62 181t-162 69q-98 0 -156 -71t-59 -187v-938z" />
    <glyph glyph-name="agrave" unicode="&#xe0;" horiz-adv-x="1220" 
d="M678 1157h-148l-192 273h174zM588 131q145 1 243 105q99 104 99 260t-96 263t-244 107q-147 0 -248 -106q-98 -108 -98 -262t98 -262q101 -105 246 -105zM565 -20q-205 0 -343 150t-138 369t138 369t343 150q240 0 365 -193v172h155v-997h-155v170q-123 -190 -365 -190z
" />
    <glyph glyph-name="aacute" unicode="&#xe1;" horiz-adv-x="1220" 
d="M612 1157h-147l166 273h174zM588 131q145 1 243 105q99 104 99 260t-96 263t-244 107q-147 0 -248 -106q-98 -108 -98 -262t98 -262q101 -105 246 -105zM565 -20q-205 0 -343 150t-138 369t138 369t343 150q240 0 365 -193v172h155v-997h-155v170q-123 -190 -365 -190z
" />
    <glyph glyph-name="acircumflex" unicode="&#xe2;" horiz-adv-x="1220" 
d="M459 1145h-131l180 272h174l180 -272h-133l-135 178zM588 131q145 1 243 105q99 104 99 260t-96 263t-244 107q-147 0 -248 -106q-98 -108 -98 -262t98 -262q101 -105 246 -105zM565 -20q-205 0 -343 150t-138 369t138 369t343 150q240 0 365 -193v172h155v-997h-155v170
q-123 -190 -365 -190z" />
    <glyph glyph-name="atilde" unicode="&#xe3;" horiz-adv-x="1220" 
d="M418 1153h-101q0 93 40 151q39 58 101 58t139 -48t99 -48q59 0 60 96h98q0 -92 -40 -150t-100 -59q-60 0 -138 48t-99 48q-59 0 -59 -96zM588 131q145 1 243 105q99 104 99 260t-96 263t-244 107q-147 0 -248 -106q-98 -108 -98 -262t98 -262q101 -105 246 -105zM565 -20
q-205 0 -343 150t-138 369t138 369t343 150q240 0 365 -193v172h155v-997h-155v170q-123 -190 -365 -190z" />
    <glyph glyph-name="adieresis" unicode="&#xe4;" horiz-adv-x="1220" 
d="M653 1261q0 34 27 64q29 27 67 27q39 0 65 -27t26 -65t-27 -64q-27 -27 -65 -27t-66 27q-27 31 -27 65zM332 1261q0 39 26 65t65 26t65 -27t26 -65t-27 -64q-27 -27 -65 -27t-64 27t-26 65zM588 131q145 1 243 105q99 104 99 260t-96 263t-244 107q-147 0 -248 -106
q-98 -108 -98 -262t98 -262q101 -105 246 -105zM565 -20q-205 0 -343 150t-138 369t138 369t343 150q240 0 365 -193v172h155v-997h-155v170q-123 -190 -365 -190z" />
    <glyph glyph-name="aring" unicode="&#xe5;" horiz-adv-x="1220" 
d="M489 1323q0 -49 33 -83t78 -34t78 34t33 83t-31 86q-37 33 -80 33t-80 -33q-31 -37 -31 -86zM600 1121q-84 0 -143 61t-59 144t58 142q60 60 144 60t143 -60t59 -142q0 -83 -58 -144q-60 -61 -144 -61zM588 131q145 1 243 105q99 104 99 260t-96 263t-244 107
q-147 0 -248 -106q-98 -108 -98 -262t98 -262q101 -105 246 -105zM565 -20q-205 0 -343 150t-138 369t138 369t343 150q240 0 365 -193v172h155v-997h-155v170q-123 -190 -365 -190z" />
    <glyph glyph-name="ae" unicode="&#xe6;" horiz-adv-x="1875" 
d="M995 563h660q-17 139 -111 227t-217 88t-219 -88q-96 -90 -113 -227zM240 285q0 -78 58 -123t155 -45q178 0 276 92q102 90 102 237v35q-61 6 -225 6t-266 -49q-100 -44 -100 -153zM84 272q0 92 43 160q110 174 463 174q113 0 231 -10q-2 135 -80 209t-204 74
q-82 0 -160 -21t-115 -41l-33 -20l-63 112l43 31q25 18 121 48t202 30q293 0 392 -240q63 106 172 176q111 63 237 64q199 0 339 -151t140 -363l-4 -64h-813q20 -141 125 -233q106 -88 263 -88t284 114l70 -114q-164 -139 -375 -139q-150 0 -270 70t-179 186
q-55 -121 -183 -189q-128 -67 -288 -67t-260 77q-98 80 -98 215z" />
    <glyph glyph-name="ccedilla" unicode="&#xe7;" horiz-adv-x="1038" 
d="M729 -250q0 68 -86 69t-125 -55l-88 33l111 187q-193 25 -325 169t-132 352q0 209 154 361t366 152t363 -137l-101 -111q-102 96 -256 96t-260 -106t-106 -261t106 -261t272 -106t275 114l92 -115q-145 -139 -350 -149l-59 -107q38 19 100 19t110 -39t48 -111t-71 -126
t-189 -54t-207 57l45 74q78 -49 157 -49t115 30q41 29 41 74z" />
    <glyph glyph-name="egrave" unicode="&#xe8;" horiz-adv-x="1146" 
d="M668 1157h-148l-192 273h174zM84 492q0 222 145 374t349 152t344 -152q141 -152 141 -360l-4 -66h-811q18 -141 120 -230t242 -89q180 0 308 115l73 -113q-168 -143 -382 -143t-371 145q-154 146 -154 367zM246 563h659q-14 137 -109 226t-218 89q-122 0 -218 -88
q-96 -90 -114 -227z" />
    <glyph glyph-name="eacute" unicode="&#xe9;" horiz-adv-x="1146" 
d="M635 1157h-148l166 273h174zM84 492q0 222 145 374t349 152t344 -152q141 -152 141 -360l-4 -66h-811q18 -141 120 -230t242 -89q180 0 308 115l73 -113q-168 -143 -382 -143t-371 145q-154 146 -154 367zM246 563h659q-14 137 -109 226t-218 89q-122 0 -218 -88
q-96 -90 -114 -227z" />
    <glyph glyph-name="ecircumflex" unicode="&#xea;" horiz-adv-x="1146" 
d="M430 1145h-131l180 272h174l181 -272h-134l-135 178zM84 492q0 222 145 374t349 152t344 -152q141 -152 141 -360l-4 -66h-811q18 -141 120 -230t242 -89q180 0 308 115l73 -113q-168 -143 -382 -143t-371 145q-154 146 -154 367zM246 563h659q-14 137 -109 226t-218 89
q-122 0 -218 -88q-96 -90 -114 -227z" />
    <glyph glyph-name="edieresis" unicode="&#xeb;" horiz-adv-x="1146" 
d="M637 1261q0 34 27 64q28 27 66 27t65 -27t27 -65t-28 -64q-26 -27 -64 -27t-66 27q-27 31 -27 65zM315 1261q0 39 27 65t65 26q39 0 65 -27t26 -65t-27 -64q-27 -27 -65 -27t-64 27q-27 27 -27 65zM84 492q0 222 145 374t349 152t344 -152q141 -152 141 -360l-4 -66h-811
q18 -141 120 -230t242 -89q180 0 308 115l73 -113q-168 -143 -382 -143t-371 145q-154 146 -154 367zM246 563h659q-14 137 -109 226t-218 89q-122 0 -218 -88q-96 -90 -114 -227z" />
    <glyph glyph-name="igrave" unicode="&#xec;" horiz-adv-x="425" 
d="M291 0h-156v997h156v-997zM313 1157h-147l-193 273h174z" />
    <glyph glyph-name="iacute" unicode="&#xed;" horiz-adv-x="425" 
d="M258 1157h-147l165 273h175zM291 0h-156v997h156v-997z" />
    <glyph glyph-name="icircumflex" unicode="&#xee;" horiz-adv-x="425" 
d="M291 0h-156v997h156v-997zM78 1145h-131l180 272h174l180 -272h-133l-135 178z" />
    <glyph glyph-name="idieresis" unicode="&#xef;" horiz-adv-x="425" 
d="M291 0h-156v997h156v-997zM374 1169q-38 0 -64 27t-27 65q1 39 27 65t65 26t65 -27t27 -65q0 -38 -27 -64q-28 -27 -66 -27zM52 1169q-38 0 -64 27t-27 65q0 39 27 65q26 26 64 26t65 -27t27 -65t-28 -64q-26 -27 -64 -27z" />
    <glyph glyph-name="eth" unicode="&#xf0;" horiz-adv-x="1216" 
d="M244 494q0 -150 106 -256t258 -106t258 106t106 256t-107 252t-257 102t-257 -102t-107 -252zM1133 505q0 -212 -151 -369q-151 -156 -369 -156q-217 0 -373 150t-156 363q0 212 152 359q154 147 368 147q133 0 223 -71q-100 129 -260 227l-198 -86l-37 76l135 59
q-106 41 -158 58l66 96q121 -33 235 -92l207 90l37 -74l-152 -68q180 -123 306 -310t125 -399z" />
    <glyph glyph-name="ntilde" unicode="&#xf1;" horiz-adv-x="1112" 
d="M391 1153h-100q0 96 41 150q35 59 98 59t140 -48t100 -48q59 0 59 96h98q0 -96 -41 -150q-35 -59 -97 -59t-140 48t-98 48q-60 0 -60 -96zM291 0h-156v997h156v-159q113 180 340 180q180 0 274 -107q92 -109 92 -303v-608h-155v584q0 141 -58 212q-58 70 -188 70
q-129 0 -217 -87t-88 -220v-559z" />
    <glyph glyph-name="ograve" unicode="&#xf2;" horiz-adv-x="1216" 
d="M717 1157h-148l-192 273h174zM244 498q0 -154 106 -260t258 -106t258 106t107 260q0 154 -108 262t-257 107q-148 1 -256 -107t-108 -262zM84 499q0 215 154 367t370 152t371 -152q154 -152 154 -366t-154 -369q-158 -151 -371 -151t-370 151q-154 154 -154 368z" />
    <glyph glyph-name="oacute" unicode="&#xf3;" horiz-adv-x="1216" 
d="M647 1157h-147l166 273h174zM244 498q0 -154 106 -260t258 -106t258 106t107 260q0 154 -108 262t-257 107q-148 1 -256 -107t-108 -262zM84 499q0 215 154 367t370 152t371 -152q154 -152 154 -366t-154 -369q-158 -151 -371 -151t-370 151q-154 154 -154 368z" />
    <glyph glyph-name="ocircumflex" unicode="&#xf4;" horiz-adv-x="1216" 
d="M473 1145h-131l180 272h174l181 -272h-134l-135 178zM244 498q0 -154 106 -260t258 -106t258 106t107 260q0 154 -108 262t-257 107q-148 1 -256 -107t-108 -262zM84 499q0 215 154 367t370 152t371 -152q154 -152 154 -366t-154 -369q-158 -151 -371 -151t-370 151
q-154 154 -154 368z" />
    <glyph glyph-name="otilde" unicode="&#xf5;" horiz-adv-x="1216" 
d="M440 1153h-100q0 96 41 150q35 59 97 59t140 -48t101 -48q59 0 59 96h99q0 -96 -41 -150q-36 -59 -98 -59t-140 48t-98 48q-60 0 -60 -96zM244 498q0 -154 106 -260t258 -106t258 106t107 260q0 154 -108 262t-257 107q-148 1 -256 -107t-108 -262zM84 499q0 215 154 367
t370 152t371 -152q154 -152 154 -366t-154 -369q-158 -151 -371 -151t-370 151q-154 154 -154 368z" />
    <glyph glyph-name="odieresis" unicode="&#xf6;" horiz-adv-x="1216" 
d="M678 1261q0 34 27 64q29 27 67 27t64 -27t26 -65t-26 -64q-26 -27 -65 -27q-38 0 -66 27q-27 31 -27 65zM356 1261q0 39 27 65t65 26t64 -27t27 -65q0 -38 -27 -64q-26 -27 -64 -27t-65 27t-27 65zM244 498q0 -154 106 -260t258 -106t258 106t107 260q0 154 -108 262
t-257 107q-148 1 -256 -107t-108 -262zM84 499q0 215 154 367t370 152t371 -152q154 -152 154 -366t-154 -369q-158 -151 -371 -151t-370 151q-154 154 -154 368z" />
    <glyph glyph-name="divide" unicode="&#xf7;" 
d="M1038 475h-913v133h913v-133zM465 236q0 49 35 81q31 35 80 35t84 -35q34 -35 34 -81t-34 -84q-37 -33 -84 -33t-81 34t-34 83zM465 850q0 49 35 82q31 35 80 35t84 -35q34 -35 34 -81t-34 -85q-37 -33 -84 -33t-81 34t-34 83z" />
    <glyph glyph-name="oslash" unicode="&#xf8;" horiz-adv-x="1216" 
d="M244 487q0 -165 137 -276l371 625q-63 31 -144 30q-150 0 -257 -107t-107 -272zM608 131q152 1 258 107t106 274t-141 276l-374 -626q68 -31 151 -31zM84 498q0 216 154 368t370 152q121 0 223 -51l97 159l78 -47l-95 -157q109 -76 162 -185q59 -106 60 -239
q0 -213 -154 -367q-158 -152 -371 -151q-119 0 -229 51l-90 -152l-80 47l92 152q-101 76 -159 184t-58 236z" />
    <glyph glyph-name="ugrave" unicode="&#xf9;" horiz-adv-x="1099" 
d="M678 1157h-148l-192 273h174zM115 381v616h155v-583q0 -283 256 -283q125 0 203 86q80 82 80 225v555h156v-997h-156v154q-106 -174 -322 -174q-180 0 -274 110q-98 107 -98 291z" />
    <glyph glyph-name="uacute" unicode="&#xfa;" horiz-adv-x="1099" 
d="M569 1157h-147l166 273h174zM115 381v616h155v-583q0 -283 256 -283q125 0 203 86q80 82 80 225v555h156v-997h-156v154q-106 -174 -322 -174q-180 0 -274 110q-98 107 -98 291z" />
    <glyph glyph-name="ucircumflex" unicode="&#xfb;" horiz-adv-x="1099" 
d="M397 1145h-131l180 272h175l180 -272h-133l-136 178zM115 381v616h155v-583q0 -283 256 -283q125 0 203 86q80 82 80 225v555h156v-997h-156v154q-106 -174 -322 -174q-180 0 -274 110q-98 107 -98 291z" />
    <glyph glyph-name="udieresis" unicode="&#xfc;" horiz-adv-x="1099" 
d="M604 1261q0 34 27 64q29 27 67 27t64 -27t26 -65t-26 -64q-26 -27 -65 -27q-38 0 -66 27q-27 31 -27 65zM283 1261q1 39 27 65t64 26t64 -27t27 -65q0 -38 -27 -64q-26 -27 -64 -27t-65 27q-26 27 -26 65zM115 381v616h155v-583q0 -283 256 -283q125 0 203 86
q80 82 80 225v555h156v-997h-156v154q-106 -174 -322 -174q-180 0 -274 110q-98 107 -98 291z" />
    <glyph glyph-name="yacute" unicode="&#xfd;" horiz-adv-x="1077" 
d="M608 1157h-147l166 273h174zM217 -301v147q90 0 142 37t98 137l20 46l-454 931h165l295 -624l68 -156l67 162l269 618h162l-467 -1046q-74 -170 -181 -215q-82 -37 -184 -37z" />
    <glyph glyph-name="thorn" unicode="&#xfe;" horiz-adv-x="1214" 
d="M291 499q0 -155 96 -263q99 -104 245 -104t242 104q96 106 96 263t-98 263q-94 106 -240 106t-245 -106q-96 -108 -96 -263zM651 1018q203 0 341 -151t138 -369t-136 -368q-136 -151 -337 -150q-117 0 -213 51t-153 139v-451h-156v1608h156v-502q127 193 360 193z" />
    <glyph glyph-name="ydieresis" unicode="&#xff;" horiz-adv-x="1077" 
d="M625 1261q0 34 26 64q29 27 67 27t64 -27t27 -65q0 -38 -27 -64q-26 -27 -64 -27t-67 27q-26 31 -26 65zM394 1169q-38 0 -64 27t-27 65q0 39 27 65q26 26 64 26t65 -27t27 -65t-28 -64q-26 -27 -64 -27zM217 -301v147q90 0 142 37t98 137l20 46l-454 931h165l295 -624
l68 -156l67 162l269 618h162l-467 -1046q-74 -170 -181 -215q-82 -37 -184 -37z" />
  </font>
</defs>
</svg>
