<?xml version="1.0" standalone="no"?>
<!DOCTYPE svg PUBLIC "-//W3C//DTD SVG 1.1//EN" "http://www.w3.org/Graphics/SVG/1.1/DTD/svg11.dtd" >
<svg xmlns="http://www.w3.org/2000/svg">
<metadata>
Created by FontPrep 20130207 at Sat Aug 16 14:41:50 2014
 By Chris Masters
Copyright (c) 2013 Type-O-Tones. v1.0 by Jose M. Uros. Barcelona. All rights reserved.
</metadata>
<defs>
<font id="1a87d090c228a568d19bb813fce7b55f" horiz-adv-x='1024' >
  <font-face 
    font-family="Arboria-Light"
    font-weight="200"
    font-stretch="normal"
    units-per-em="2048"
    panose-1="2 0 3 3 0 0 0 0 0 0"
    ascent="1657"
    descent="-391"
    x-height="979"
    cap-height="1327"
    bbox="-41 -428 1876 1772"
    underline-thickness="73"
    underline-position="-82"
    unicode-range="U+0020-00FF"
  />
<missing-glyph horiz-adv-x="1024" 
 />
    <glyph glyph-name=".notdef" horiz-adv-x="1024" 
 />
    <glyph glyph-name=".null" horiz-adv-x="0" 
 />
    <glyph glyph-name="nonmarkingreturn" horiz-adv-x="681" 
 />
    <glyph glyph-name="space" unicode=" " horiz-adv-x="450" 
 />
    <glyph glyph-name="exclam" unicode="!" horiz-adv-x="405" 
d="M238 295h-74l-17 1032h107zM283 59q0 -35 -23 -57q-24 -22 -58 -23q-34 0 -57 23q-23 24 -23 58t23 57t58 23t57 -24q22 -22 23 -57z" />
    <glyph glyph-name="quotedbl" unicode="&#x22;" horiz-adv-x="614" 
d="M451 920h-82v407h82v-407zM246 920h-82v407h82v-407z" />
    <glyph glyph-name="numbersign" unicode="#" 
d="M492 897l-109 -448h276l109 448h-276zM276 0h-79l88 371h-168l18 78h168l109 448h-170l18 78h170l86 352h80l-86 -352h276l86 352h80l-86 -352h164l-18 -78h-164l-109 -448h166l-18 -78h-166l-88 -371h-80l88 371h-276z" />
    <glyph glyph-name="dollar" unicode="$" 
d="M563 59q172 0 292 83q120 84 120 212t-88 189q-80 66 -278 104q-198 37 -304 98q-133 74 -133 239t110 256t246 106v239h82v-239q115 -6 205 -58q96 -51 152 -119l-56 -55q-47 59 -141 111q-94 45 -202 45t-210 -75q-100 -75 -100 -204q0 -197 313 -252q166 -27 283 -80
q207 -90 207 -294q0 -173 -128 -273t-323 -110v-271h-82v269q-288 16 -444 221l55 55q154 -197 424 -197z" />
    <glyph glyph-name="percent" unicode="%" horiz-adv-x="1658" 
d="M453 -37l-64 37l819 1364l64 -37zM971 383q0 178 83 292q83 113 209 113t210 -114q83 -114 83 -291q0 -176 -82 -290q-82 -113 -211 -113q-128 0 -210 112t-82 291zM1049 385q0 -143 58 -237q59 -94 157 -95q98 0 156 94q58 93 58 237t-58 238t-155 93q-97 0 -157 -92
q-59 -95 -59 -238zM102 942q0 178 83 292t209 114t210 -115t84 -291t-83 -290t-211 -114t-210 114q-82 112 -82 290zM610 942q0 140 -58 236t-156 96t-157 -95t-59 -237t58 -235q58 -95 156 -95q97 0 157 93q59 96 59 237z" />
    <glyph glyph-name="ampersand" unicode="&#x26;" horiz-adv-x="1126" 
d="M156 365q0 -143 107 -225t251 -83q182 0 315 127l-428 482q-119 -43 -182 -123t-63 -178zM70 365q0 117 72 215t208 153q-112 162 -112 292t92 226t252 97q98 0 190 -60t135 -172l-78 -29q-35 91 -105 137t-142 46q-123 0 -191 -72q-137 -145 -2 -362q61 -104 213 -275
l279 -313q33 36 61 110t29 156h82q0 -88 -33 -186q-37 -92 -82 -144l139 -155l-61 -54l-133 150q-151 -145 -349 -145t-331 98q-133 103 -133 287z" />
    <glyph glyph-name="quotesingle" unicode="'" horiz-adv-x="409" 
d="M246 920h-82v407h82v-407z" />
    <glyph glyph-name="parenleft" unicode="(" horiz-adv-x="540" 
d="M209 582q0 -454 270 -750l-59 -59q-297 334 -297 811t297 811l59 -60q-270 -299 -270 -753z" />
    <glyph glyph-name="parenright" unicode=")" horiz-adv-x="540" 
d="M418 584q0 -477 -297 -811l-60 59q271 297 271 751t-271 752l60 60q297 -334 297 -811z" />
    <glyph glyph-name="asterisk" unicode="*" horiz-adv-x="835" 
d="M459 625h-82l10 303l-258 -160l-41 72l268 141l-268 143l41 72l258 -162l-10 305h82l-10 -305l258 162l41 -72l-269 -143l269 -141l-41 -72l-258 160z" />
    <glyph glyph-name="plus" unicode="+" 
d="M610 78h-78v405h-401v74h401v404h78v-404h404v-74h-404v-405z" />
    <glyph glyph-name="comma" unicode="," horiz-adv-x="337" 
d="M158 -281h-86l86 410h108z" />
    <glyph glyph-name="hyphen" unicode="-" horiz-adv-x="841" 
d="M780 436h-719v78h719v-78z" />
    <glyph glyph-name="period" unicode="." horiz-adv-x="337" 
d="M88 60q0 34 23 57q27 23 59 23t54 -24q24 -22 24 -57t-24 -57t-55 -23q-31 0 -58 23q-23 24 -23 58z" />
    <glyph glyph-name="slash" unicode="/" horiz-adv-x="954" 
d="M125 -39h-88l876 1458h88z" />
    <glyph glyph-name="zero" unicode="0" 
d="M94 664q0 300 135 492t344 192t345 -193t135 -491q0 -298 -135 -492q-134 -193 -344 -193t-345 193t-135 492zM180 664q0 -264 111 -436t283 -171q172 0 282 171q111 172 111 436t-111 435q-110 171 -282 171t-283 -171t-111 -435z" />
    <glyph glyph-name="one" unicode="1" 
d="M969 0h-676v78h297v1128l-289 -225l-49 61l350 285h70v-1249h297v-78z" />
    <glyph glyph-name="two" unicode="2" 
d="M1026 0h-883v70q756 575 756 895q0 131 -95 216q-96 85 -222 85t-206 -43t-177 -148l-54 60q182 213 424 213q197 0 307 -117t109 -262q0 -201 -212 -442t-505 -449h758v-78z" />
    <glyph glyph-name="three" unicode="3" 
d="M532 55q172 1 282 103t110 252t-106 245q-106 94 -261 95q-106 0 -190 -60l-37 55l508 504h-691v78h805v-78l-420 -424q214 1 346 -111t132 -302t-133 -312q-133 -121 -345 -120q-288 -1 -411 157l57 66q43 -63 144 -109q100 -39 210 -39z" />
    <glyph glyph-name="four" unicode="4" 
d="M831 0h-81v299h-617v78l561 950l68 -41l-539 -909h527v350h81v-350h183v-78h-183v-299z" />
    <glyph glyph-name="five" unicode="5" 
d="M557 55q164 -1 265 101q102 102 102 244t-108 242t-272 99q-165 0 -300 -110l-66 41v655h768v-78h-686v-514q137 82 311 82q175 0 307 -120t132 -294t-123 -299t-330 -124q-247 0 -403 137l47 76q12 -16 55 -50q137 -88 301 -88z" />
    <glyph glyph-name="six" unicode="6" 
d="M572 844q-158 0 -271 -117t-113 -279t111 -278q115 -115 273 -115t271 114q114 114 113 280q0 167 -114 281q-112 114 -270 114zM571 -20q-195 0 -332 137t-137 321t136 338l505 572l58 -52l-359 -403q41 23 123 22q197 0 337 -132q140 -131 140 -329t-138 -336
t-333 -138z" />
    <glyph glyph-name="seven" unicode="7" 
d="M170 1249v78h889v-82l-670 -1245h-90l680 1249h-809z" />
    <glyph glyph-name="eight" unicode="8" 
d="M315 1043q0 -97 76 -164q78 -66 182 -66t183 66q76 69 76 165t-74 164q-74 64 -185 64t-185 -66t-73 -163zM573 739q-161 1 -273 -97t-112 -242t109 -246q111 -98 277 -98t276 96q108 96 108 246t-112 243q-111 98 -273 98zM102 397q0 137 76 234q76 102 207 151
q-156 88 -156 260q0 131 99 218q94 88 246 88t245 -88q98 -86 99 -218q0 -78 -41 -149q-43 -70 -117 -111q133 -49 207 -151q78 -98 77 -234q0 -180 -133 -299q-133 -118 -339 -118t-338 120t-132 297z" />
    <glyph glyph-name="nine" unicode="9" 
d="M574 1272q-160 0 -273 -115t-113 -279t113 -280q113 -115 273 -115t270 117q112 113 112 278t-112 277q-110 117 -270 117zM1042 889q0 -184 -135 -338l-506 -571l-57 51l358 403q-41 -23 -122 -22q-193 0 -338 133q-140 133 -140 331t138 334t332 138q196 0 333 -138
t137 -321z" />
    <glyph glyph-name="colon" unicode=":" horiz-adv-x="337" 
d="M88 60q0 34 23 57q27 23 59 23t54 -24q24 -22 24 -57t-24 -57t-55 -23q-31 0 -58 23q-23 24 -23 58zM88 818q0 34 25 56t57 23q32 0 54 -23q24 -24 24 -58t-24 -56t-55 -23q-31 0 -58 23q-23 24 -23 58z" />
    <glyph glyph-name="semicolon" unicode=";" horiz-adv-x="356" 
d="M158 -281h-86l86 410h108zM102 818q0 34 23 56t57 23q34 0 58 -23q22 -24 22 -58t-22 -56t-58 -23q-34 0 -57 23q-23 24 -23 58z" />
    <glyph glyph-name="less" unicode="&#x3c;" 
d="M983 119l-819 366v70l819 367v-80l-727 -322l727 -321v-80z" />
    <glyph glyph-name="equal" unicode="=" 
d="M1014 637h-883v74h883v-74zM1014 395h-883v74h883v-74z" />
    <glyph glyph-name="greater" unicode="&#x3e;" 
d="M983 485l-819 -366v80l727 321l-727 322v80l819 -367v-70z" />
    <glyph glyph-name="question" unicode="?" horiz-adv-x="980" 
d="M350 60q0 34 23 57q27 23 59 23t54 -24q24 -22 24 -57t-24 -57t-55 -23q-31 0 -58 23q-23 24 -23 58zM772 936q0 135 -98 233q-94 100 -240 101q-108 0 -194 -62t-123 -161l-74 38q49 123 155 193t246 70q178 0 295 -123q119 -119 119 -289t-108 -290t-273 -132l-12 -221
h-74l-4 282q290 0 367 244q18 55 18 117z" />
    <glyph glyph-name="at" unicode="@" horiz-adv-x="1880" 
d="M929 807q-126 0 -214 -90t-88 -218q0 -129 88 -221t211 -92t207 90q84 96 84 228t-82 215q-80 88 -206 88zM950 -287q-346 1 -576 231t-231 560q0 330 237 566q238 236 566 237q328 -1 559 -221t232 -531q0 -190 -88 -309t-217 -119q-72 0 -132 37q-59 37 -79 112
q-98 -170 -318 -170q-145 0 -253 114t-107 277q-1 163 107 277t253 115q211 0 314 -166v145h81v-465q0 -84 35 -140t118 -56t143 95t61 253q0 279 -206 479t-502 199q-296 0 -509 -217t-213 -514t213 -506t512 -209q197 0 328 70l31 -66q-152 -78 -359 -78z" />
    <glyph glyph-name="A" unicode="A" horiz-adv-x="1404" 
d="M592 977l-305 -612h829l-303 614l-111 238q-55 -127 -110 -240zM106 0h-86l660 1327h45l659 -1327h-86l-143 289h-905z" />
    <glyph glyph-name="B" unicode="B" horiz-adv-x="1349" 
d="M246 1249v-446h563q100 0 162 61q61 60 61 158t-70 163t-186 64h-530zM246 725v-647h510q188 0 303 90q113 92 113 236t-95 232q-94 89 -266 89h-565zM756 0h-592v1327h612q154 0 248 -86t94 -219q0 -86 -49 -159t-111 -87q123 -14 211 -122t88 -269t-137 -273t-364 -112
z" />
    <glyph glyph-name="C" unicode="C" horiz-adv-x="1331" 
d="M796 -20q-294 0 -494 200t-200 485q0 283 200 483t478 200q280 0 480 -193l-58 -57q-178 172 -422 172t-418 -176t-174 -430t174 -430t432 -176t439 202l57 -59q-201 -221 -494 -221z" />
    <glyph glyph-name="D" unicode="D" horiz-adv-x="1435" 
d="M649 0h-485v1327h485q307 0 494 -192q190 -190 190 -470q1 -281 -189 -473t-495 -192zM246 1249v-1171h393q270 0 440 166q168 166 168 420t-168 420t-440 165h-393z" />
    <glyph glyph-name="E" unicode="E" horiz-adv-x="1253" 
d="M1171 0h-1007v1327h977v-78h-895v-489h831v-78h-831v-604h925v-78z" />
    <glyph glyph-name="F" unicode="F" horiz-adv-x="1130" 
d="M246 0h-82v1327h926v-78h-844v-489h696v-78h-696v-682z" />
    <glyph glyph-name="G" unicode="G" horiz-adv-x="1505" 
d="M102 664q0 284 200 484t480 200q278 0 478 -191l-60 -59q-172 172 -418 172t-420 -176t-174 -430t174 -430t424 -177q152 0 281 71t213 191v328h-342v78h424v-432q-98 -147 -249 -231t-327 -82q-284 0 -484 200t-200 484z" />
    <glyph glyph-name="H" unicode="H" horiz-adv-x="1392" 
d="M246 0h-82v1327h82v-565h901v565h82v-1327h-82v684h-901v-684z" />
    <glyph glyph-name="I" unicode="I" horiz-adv-x="409" 
d="M246 0h-82v1327h82v-1327z" />
    <glyph glyph-name="J" unicode="J" horiz-adv-x="1058" 
d="M834 1327h81v-813q0 -272 -133 -403t-348 -131q-117 0 -219 57q-99 62 -154 168l64 47q101 -190 297 -190t305 118q106 121 107 365v782z" />
    <glyph glyph-name="K" unicode="K" horiz-adv-x="1277" 
d="M246 0h-82v1327h82v-919l110 122l760 797h107l-574 -604l608 -723h-104l-559 666l-348 -365v-301z" />
    <glyph glyph-name="L" unicode="L" horiz-adv-x="1212" 
d="M1130 0h-966v1327h82v-1249h884v-78z" />
    <glyph glyph-name="M" unicode="M" horiz-adv-x="1679" 
d="M246 0h-82v1327h72l604 -831l604 831h72v-1327h-82v1180l-129 -181l-465 -639l-465 639l-129 181v-1180z" />
    <glyph glyph-name="N" unicode="N" horiz-adv-x="1429" 
d="M1184 1327h82v-1327h-72l-948 1184v-1184h-82v1327h65l955 -1192v1192z" />
    <glyph glyph-name="O" unicode="O" horiz-adv-x="1572" 
d="M102 664q0 284 201 484t483 200t484 -201q200 -201 200 -483t-200 -484q-200 -201 -484 -201q-282 0 -483 201t-201 484zM188 664q0 -254 174 -430t422 -176t424 180t176 426t-176 426t-424 180t-422 -176t-174 -430z" />
    <glyph glyph-name="P" unicode="P" horiz-adv-x="1335" 
d="M246 1249v-821h463q197 0 323 120t125 291q0 171 -126 291t-320 119h-465zM246 0h-82v1327h528q250 0 401 -139t151 -350q0 -212 -152 -350q-150 -138 -402 -138h-444v-350z" />
    <glyph glyph-name="Q" unicode="Q" horiz-adv-x="1572" 
d="M776 57q240 0 408 154l-176 178l55 53l176 -176q145 176 145 410t-176 414t-424 180t-422 -176t-174 -430t174 -428q174 -179 414 -179zM102 664q0 284 201 484t483 200t484 -200q200 -200 200 -474q0 -272 -174 -465l154 -154l-53 -55l-156 154q-193 -174 -465 -174
t-474 200q-200 200 -200 484z" />
    <glyph glyph-name="R" unicode="R" horiz-adv-x="1335" 
d="M246 1249v-821h463q197 0 323 120t125 291q0 171 -126 291t-320 119h-465zM246 0h-82v1327h528q250 0 401 -139t150 -350q0 -160 -89 -281t-249 -174l338 -383h-110l-314 358q-41 -8 -272 -8h-301v-350z" />
    <glyph glyph-name="S" unicode="S" horiz-adv-x="1212" 
d="M1024 357q0 101 -80 167q-39 33 -92 54q-47 22 -89 34t-134 37q-223 57 -318 109q-145 84 -145 240t133 253q133 96 307 97q236 0 426 -154l-51 -61q-162 137 -375 137q-130 0 -242 -70t-112 -196q-8 -58 30 -106t77 -72t100 -44l86 -28l102 -25q33 -8 139 -39
q156 -54 230 -112q94 -88 94 -224q0 -178 -152 -276t-354 -98q-301 0 -502 219l54 59q176 -201 431 -201t371 127q66 72 66 173z" />
    <glyph glyph-name="T" unicode="T" horiz-adv-x="1204" 
d="M643 0h-82v1249h-520v78h1122v-78h-520v-1249z" />
    <glyph glyph-name="U" unicode="U" horiz-adv-x="1355" 
d="M143 504v823h82v-829q0 -193 131 -318q132 -125 322 -125t321 125t131 318v829h82v-823q0 -236 -156 -380t-379 -144q-222 0 -380 145q-154 146 -154 379z" />
    <glyph glyph-name="V" unicode="V" horiz-adv-x="1368" 
d="M702 -10h-36l-646 1337h89l575 -1210l88 190l488 1020h88z" />
    <glyph glyph-name="W" unicode="W" horiz-adv-x="1896" 
d="M549 -10h-60l-469 1337h84l371 -1061l43 -133q12 55 39 133l352 1061h78l350 -1061l41 -133l43 133l373 1061h82l-469 -1337h-59l-357 1075l-43 145q-16 -63 -43 -145z" />
    <glyph glyph-name="X" unicode="X" horiz-adv-x="1224" 
d="M121 0h-101l539 664l-539 663h101l389 -473l102 -131l105 133l387 471h100l-538 -663l538 -664h-100l-383 467l-109 139q-47 -63 -106 -137z" />
    <glyph glyph-name="Y" unicode="Y" horiz-adv-x="1243" 
d="M664 0h-82v647l-562 680h101l348 -416l154 -194l155 194l344 416h101l-559 -678v-649z" />
    <glyph glyph-name="Z" unicode="Z" horiz-adv-x="1232" 
d="M1151 0h-1069v82l879 1081l77 86h-915v78h1007v-82l-880 -1085l-74 -82h975v-78z" />
    <glyph glyph-name="bracketleft" unicode="[" horiz-adv-x="505" 
d="M455 -203h-332v1624h332v-73h-250v-1477h250v-74z" />
    <glyph glyph-name="backslash" unicode="\" horiz-adv-x="1103" 
d="M1102 -39h-94l-1020 1458h94z" />
    <glyph glyph-name="bracketright" unicode="]" horiz-adv-x="505" 
d="M383 -203h-332v74h250v1477h-250v73h332v-1624z" />
    <glyph glyph-name="asciicircum" unicode="^" horiz-adv-x="1085" 
d="M217 692h-86l387 635h49l387 -635h-86l-325 531z" />
    <glyph glyph-name="underscore" unicode="_" horiz-adv-x="966" 
d="M973 -195h-979v74h979v-74z" />
    <glyph glyph-name="grave" unicode="`" horiz-adv-x="614" 
d="M436 1153h-86l-170 238h109z" />
    <glyph glyph-name="a" unicode="a" horiz-adv-x="1202" 
d="M577 53q169 0 287 125t117 309q0 183 -117 311q-116 128 -286 128t-287 -127t-117 -309t117 -309q117 -128 286 -128zM578 999q131 0 237 -65q104 -66 166 -184v229h78v-979h-78v229q-61 -119 -167 -185t-236 -64q-201 0 -345 149q-141 151 -141 361t141 360
q144 149 345 149z" />
    <glyph glyph-name="b" unicode="b" horiz-adv-x="1202" 
d="M625 53q171 0 287 128t116 309q0 180 -117 308t-287 128t-286 -127q-117 -127 -117 -309t117 -309q117 -128 287 -128zM221 0h-78v1348h78v-598q59 118 166 184t238 65q201 1 343 -149t142 -361t-142 -361t-343 -148q-133 0 -240 65q-104 66 -164 184v-229z" />
    <glyph glyph-name="c" unicode="c" horiz-adv-x="1040" 
d="M92 490q0 210 150 360t356 149q207 0 356 -143l-53 -53q-127 123 -301 123t-300 -127t-126 -311t126 -309q126 -126 309 -126t317 146l53 -52q-154 -167 -371 -167q-216 0 -366 150t-150 360z" />
    <glyph glyph-name="d" unicode="d" horiz-adv-x="1202" 
d="M577 53q169 0 287 124t117 309q0 184 -117 312q-116 128 -286 128t-287 -127t-117 -309t117 -309q117 -128 286 -128zM578 999q131 0 237 -65q104 -66 166 -184v598h78v-1348h-78v229q-61 -119 -167 -185t-236 -64q-201 0 -345 149q-141 151 -141 361t141 360
q144 149 345 149z" />
    <glyph glyph-name="e" unicode="e" horiz-adv-x="1130" 
d="M567 999q195 -1 333 -151t138 -350l-2 -43h-862q16 -172 135 -287t299 -115t310 146l53 -52q-156 -167 -370 -167t-361 150q-148 150 -148 358q0 210 139 362q141 149 336 149zM566 926q-154 0 -265 -117q-113 -113 -127 -281h780q-12 166 -123 282t-265 116z" />
    <glyph glyph-name="f" unicode="f" horiz-adv-x="589" 
d="M221 0h-78v905h-163v74h163v63q0 326 254 326q55 0 113 -19t88 -42l29 -23l-47 -53q-88 63 -183 63q-176 0 -176 -252v-63h359v-74h-359v-905z" />
    <glyph glyph-name="g" unicode="g" horiz-adv-x="1202" 
d="M174 519q0 -177 114 -291t289 -114t289 114q114 112 115 290q0 178 -116 293q-115 115 -285 115t-291 -115q-115 -115 -115 -292zM578 999q133 0 238 -58t165 -169v207h78v-762q0 -141 -47 -242q-41 -106 -113 -161q-61 -51 -152 -83t-169 -32q-223 0 -377 168l53 51
q129 -145 324 -145q59 -1 135 25t127 69q63 49 102 143t39 207v49q-57 -106 -162 -168q-111 -57 -241 -57q-203 0 -345 135q-141 139 -141 345t141 341q138 137 345 137z" />
    <glyph glyph-name="h" unicode="h" horiz-adv-x="1064" 
d="M221 0h-78v1348h78v-547q106 199 352 198q168 0 271 -96q98 -96 98 -264v-639h-78v616q0 309 -301 310q-154 0 -248 -100t-94 -230v-596z" />
    <glyph glyph-name="i" unicode="i" horiz-adv-x="364" 
d="M221 0h-78v979h78v-979zM139 1206q-43 43 2 88t88 2t-2 -88t-88 -2z" />
    <glyph glyph-name="j" unicode="j" horiz-adv-x="364" 
d="M139 1206q-43 43 2 88t88 2t-2 -88t-88 -2zM143 154v825h78v-823q0 -361 -221 -480l-25 72q168 106 168 406z" />
    <glyph glyph-name="k" unicode="k" horiz-adv-x="980" 
d="M221 0h-78v1348h78v-1002l578 633h108l-393 -432l457 -547h-113l-399 494l-238 -267v-227z" />
    <glyph glyph-name="l" unicode="l" horiz-adv-x="364" 
d="M221 0h-78v1348h78v-1348z" />
    <glyph glyph-name="m" unicode="m" horiz-adv-x="1708" 
d="M825 616q0 310 -268 310q-135 0 -235 -96t-101 -240v-590h-78v979h78v-172q106 193 345 193t313 -205q53 104 149 151q88 53 209 53q166 0 258 -94q90 -96 90 -266v-639h-78v616q0 310 -273 310q-140 0 -236 -89t-95 -235v-602h-78v616z" />
    <glyph glyph-name="n" unicode="n" horiz-adv-x="1064" 
d="M221 0h-78v979h78v-178q106 199 352 198q168 0 271 -96q98 -96 98 -264v-639h-78v616q0 309 -301 310q-131 0 -239 -97q-102 -96 -103 -239v-590z" />
    <glyph glyph-name="o" unicode="o" horiz-adv-x="1204" 
d="M602 926q-176 0 -302 -127t-126 -311t126 -309q126 -126 302 -126t302 126t126 309q0 182 -126 310t-302 128zM92 490q0 210 150 360t360 150t361 -150q149 -150 149 -361t-150 -361t-360 -149q-210 0 -360 150q-150 151 -150 361z" />
    <glyph glyph-name="p" unicode="p" horiz-adv-x="1202" 
d="M625 53q171 0 287 128t116 309q0 180 -117 308t-287 128t-286 -127q-117 -127 -117 -309t117 -309q117 -128 287 -128zM221 -281h-78v1260h78v-229q59 118 166 184t238 65q201 1 343 -149t142 -361t-142 -361t-343 -148q-133 0 -240 65q-104 66 -164 184v-510z" />
    <glyph glyph-name="q" unicode="q" horiz-adv-x="1202" 
d="M578 53q170 0 286 128t117 310q0 183 -118 309q-119 126 -287 126t-285 -127t-117 -309t117 -309q117 -128 287 -128zM578 999q131 0 237 -65q104 -66 166 -184v229h78v-1260h-78v510q-61 -119 -167 -185t-236 -64q-201 0 -345 149q-141 151 -141 361t141 360
q144 149 345 149z" />
    <glyph glyph-name="r" unicode="r" horiz-adv-x="665" 
d="M221 0h-78v979h78v-225q115 246 404 245v-88q-78 0 -138 -22q-59 -17 -125 -65t-103 -139q-38 -91 -38 -212v-473z" />
    <glyph glyph-name="s" unicode="s" horiz-adv-x="937" 
d="M766 264q0 92 -92 139q-70 37 -195 68l-106 27l-90 30q-53 23 -82 47q-70 69 -70 173t100 178t230 73q182 0 323 -116l-49 -56q-121 98 -268 99q-102 0 -178 -56t-76 -124q0 -70 55 -121q27 -19 78 -37t64 -21l86 -20q134 -35 202 -65q137 -60 148 -216q0 -135 -113 -211
q-106 -76 -268 -75q-228 -1 -373 163l51 58q119 -147 318 -148q137 0 219 62q86 57 86 149z" />
    <glyph glyph-name="t" unicode="t" horiz-adv-x="708" 
d="M180 305v600h-149v74h149v244h78v-244h379v-74h-379v-600q0 -252 176 -252q102 0 160 49l22 15l35 -64q-92 -74 -217 -73q-254 -1 -254 325z" />
    <glyph glyph-name="u" unicode="u" horiz-adv-x="1044" 
d="M123 340v639h78v-617q0 -309 301 -309q133 0 227 94t94 242v590h78v-979h-78v166q-100 -186 -331 -186q-168 0 -271 96q-98 96 -98 264z" />
    <glyph glyph-name="v" unicode="v" horiz-adv-x="1007" 
d="M532 -10h-57l-465 989h86l408 -889l407 889h86z" />
    <glyph glyph-name="w" unicode="w" horiz-adv-x="1429" 
d="M430 -10h-70l-350 989h78l274 -774l31 -96l29 96l254 774h78l254 -774l28 -96q8 23 18 55t15 41l272 774h78l-350 -989h-70l-256 780l-28 98q-3 -6 -11 -37t-18 -61z" />
    <glyph glyph-name="x" unicode="x" horiz-adv-x="905" 
d="M104 0h-94l398 492l-398 487h94l242 -299l107 -137l108 139l240 297h94l-397 -492l397 -487h-94l-242 299l-106 137l-107 -137z" />
    <glyph glyph-name="y" unicode="y" horiz-adv-x="1054" 
d="M225 -301v74q92 0 144 39q55 35 114 165l23 50l-475 952h88l356 -721l70 -152l393 873h86l-471 -1032q-74 -166 -154 -207t-174 -41z" />
    <glyph glyph-name="z" unicode="z" horiz-adv-x="927" 
d="M866 0h-805v74l584 700l115 131h-678v74h766v-74l-582 -698l-116 -133h716v-74z" />
    <glyph glyph-name="braceleft" unicode="{" horiz-adv-x="718" 
d="M125 561h-19v84h19q152 0 151 105v204q0 477 363 478h29v-82q-170 0 -238 -97q-72 -92 -72 -299v-184q0 -147 -104 -168q104 -41 104 -166v-184q0 -201 70 -297t240 -96v-82h-29q-362 0 -363 475v205q1 104 -151 104z" />
    <glyph glyph-name="bar" unicode="|" horiz-adv-x="389" 
d="M231 -387h-77v1898h77v-1898z" />
    <glyph glyph-name="braceright" unicode="}" horiz-adv-x="718" 
d="M80 -223h-29v82q166 0 240 96q70 100 69 297v184q0 125 105 166q-104 20 -105 168v184q0 201 -69 299q-74 96 -240 97v82h29q362 0 362 -478v-204q0 -104 152 -105h18v-84h-18q-152 0 -152 -104v-205q0 -475 -362 -475z" />
    <glyph glyph-name="asciitilde" unicode="~" horiz-adv-x="1128" 
d="M256 420h-78q0 51 43 117q96 134 344 -2q127 -66 187 -66t92 35q27 37 26 74h78q0 -54 -44 -118t-140 -64t-223 65q-123 67 -175 67t-83 -34q-27 -37 -27 -74z" />
    <glyph glyph-name="uni00A0" unicode="&#xa0;" horiz-adv-x="1327" 
 />
    <glyph glyph-name="exclamdown" unicode="&#xa1;" horiz-adv-x="405" 
d="M258 -348h-106l16 1032h74zM283 920q0 -34 -23 -58q-24 -23 -58 -23t-57 23t-22 58q1 36 23 58t57 22t57 -24q22 -22 23 -56z" />
    <glyph glyph-name="cent" unicode="&#xa2;" 
d="M668 -82h-78v232q-190 20 -326 161q-135 141 -135 346t135 347t326 159v226h78v-224q193 -12 323 -143l-53 -53q-125 125 -300 125t-301 -127t-126 -311t126 -309q126 -126 302 -126q98 0 180 41q85 35 144 105l53 -52q-143 -156 -348 -168v-229z" />
    <glyph glyph-name="sterling" unicode="&#xa3;" 
d="M1061 0h-975v68h174v555h-160v77h160v269q0 176 120 277q120 102 301 102t306 -131l-55 -56q-109 109 -250 109q-140 0 -240 -88t-100 -213v-269h461v-77h-461v-545h719v-78z" />
    <glyph glyph-name="currency" unicode="&#xa4;" 
d="M295 596q0 -121 83 -204q84 -83 196 -83t195 83t83 204t-83 204t-195 83t-196 -83q-83 -83 -83 -204zM213 592q0 125 78 227l-152 154l58 57l151 -153q102 79 225 79t224 -79l153 153l58 -57l-154 -154q80 -102 80 -225t-80 -223l154 -152l-58 -57l-153 151
q-95 -78 -221 -78t-228 78l-151 -151l-58 57l152 152q-78 96 -78 221z" />
    <glyph glyph-name="yen" unicode="&#xa5;" 
d="M614 0h-82v276h-315v78h315v162h-315v78h315v53l-458 680h94l324 -479l81 -127q31 55 80 127l324 479h94l-457 -678v-55h312v-78h-312v-162h312v-78h-312v-276z" />
    <glyph glyph-name="brokenbar" unicode="&#xa6;" horiz-adv-x="389" 
d="M233 -389h-77v985h77v-985zM233 786h-77v861h77v-861z" />
    <glyph glyph-name="section" unicode="&#xa7;" horiz-adv-x="1034" 
d="M102 723q0 84 50 149q45 68 116 86q-42 16 -70 60t-28 94q0 119 95 177t227 59q225 0 376 -103l-45 -65q-131 92 -327 92q-86 0 -163 -34t-77 -106t45 -104q45 -33 170 -82l223 -86q238 -86 238 -268q0 -92 -53 -160t-131 -78q53 -16 87 -62t33 -102q0 -137 -131 -188
q-107 -43 -223 -43t-215 34t-160 89l58 63q119 -111 307 -110q82 0 166 24q109 37 108 134q0 55 -42 88t-173 81l-223 87q-238 90 -238 274zM846 590q0 133 -141 186l-308 115q-37 12 -65 12t-67 -30q-75 -56 -76 -133q-1 -76 46 -134t134 -88l213 -80q82 -29 106 -28
q61 0 111 55q47 57 47 125z" />
    <glyph glyph-name="dieresis" unicode="&#xa8;" horiz-adv-x="614" 
d="M381 1236q0 28 19 47q20 19 48 19t46 -18q18 -20 18 -48t-18 -46t-46 -18t-48 18t-19 46zM104 1236q0 28 20 47t47 19q28 0 46 -18q19 -20 19 -48t-18 -46t-47 -18q-27 0 -47 18t-20 46z" />
    <glyph glyph-name="copyright" unicode="&#xa9;" horiz-adv-x="1531" 
d="M767 31q261 0 443 185q182 186 182 448t-184 446q-180 186 -441 186t-445 -186q-182 -188 -182 -447t182 -448q184 -184 445 -184zM778 1073q168 0 287 -112l-53 -54q-96 90 -232 90t-229 -100q-94 -99 -94 -237t94 -238q96 -98 236 -98t251 118l54 -55
q-124 -139 -302 -139t-298 121t-121 291q0 170 121 290q118 123 286 123zM82 664q0 284 201 484t483 200t484 -201q200 -201 200 -483t-201 -484q-201 -201 -483 -201t-483 201t-201 484z" />
    <glyph glyph-name="ordfeminine" unicode="&#xaa;" horiz-adv-x="739" 
d="M319 664q-107 0 -177 52t-70 158t98 156q100 49 244 49q61 0 143 -16q-2 90 -55 143q-53 54 -152 54t-166 -50l-20 -16l-43 61q27 27 103 53q77 27 138 27q274 0 275 -319v-338h-78v76q-96 -90 -240 -90zM152 864q0 -57 45 -92q47 -33 119 -33t124 22q51 23 73 49t36 52
q10 27 10 41v88q-51 14 -145 15q-262 -1 -262 -142z" />
    <glyph glyph-name="guillemotleft" unicode="&#xab;" horiz-adv-x="831" 
d="M702 133l-340 332v61l340 332l52 -49l-312 -313l310 -314zM416 133l-340 332v61l340 332l51 -49l-311 -313l309 -314z" />
    <glyph glyph-name="logicalnot" unicode="&#xac;" 
d="M934 227v324h-803v74h883l-2 -398h-78z" />
    <glyph glyph-name="registered" unicode="&#xae;" horiz-adv-x="1531" 
d="M767 31q261 0 443 185q182 186 182 448t-184 446q-180 186 -441 186t-445 -186q-182 -188 -182 -447t182 -448q184 -184 445 -184zM565 981v-483h260q100 0 169 70t69 171q0 102 -69 172t-169 70h-260zM565 260h-82v803h342q133 0 229 -95t95 -229q0 -90 -46 -167
t-120 -117l150 -195h-105l-125 164q-27 -8 -78 -8h-260v-156zM82 664q0 284 201 484t483 200t484 -201q200 -201 200 -483t-201 -484q-201 -201 -483 -201t-483 201t-201 484z" />
    <glyph glyph-name="macron" unicode="&#xaf;" horiz-adv-x="614" 
d="M487 1176h-360v71h360v-71z" />
    <glyph glyph-name="degree" unicode="&#xb0;" horiz-adv-x="708" 
d="M188 1106q0 -68 46 -114t108 -46t111 47q47 47 47 113t-47 113t-110 47t-109 -46t-46 -114zM102 1105q0 101 71 172t170 71t171 -72t72 -171t-71 -170t-172 -71t-171 70t-70 171z" />
    <glyph glyph-name="plusminus" unicode="&#xb1;" 
d="M532 551h-401v74h401v321h78v-321h404v-74h-404v-324h-78v324zM1014 68h-883v73h883v-73z" />
    <glyph glyph-name="uni00B2" unicode="&#xb2;" horiz-adv-x="761" 
d="M686 600h-635v64q319 268 406 360q133 145 133 254q0 82 -58 139q-63 53 -157 53q-152 0 -262 -118l-50 55q129 137 312 137q137 0 217 -74t80 -192q0 -70 -29 -139q-58 -114 -236 -270t-225 -195h504v-74z" />
    <glyph glyph-name="uni00B3" unicode="&#xb3;" horiz-adv-x="768" 
d="M592 896q0 95 -64 157q-66 61 -158 61t-149 -37l-37 51l346 332h-458v74h561v-68l-283 -280h10q145 0 230 -86q84 -90 84 -208t-94 -212q-96 -92 -250 -92q-195 0 -289 104l49 53q84 -84 244 -83q117 0 186 71q72 68 72 163z" />
    <glyph glyph-name="acute" unicode="&#xb4;" horiz-adv-x="614" 
d="M262 1153h-86l148 238h108z" />
    <glyph glyph-name="mu" unicode="&#xb5;" horiz-adv-x="1044" 
d="M201 -281h-78v1260h78v-580q0 -172 82 -259t226 -87q143 -1 239 101t96 282v543h78v-424q0 -385 131 -522l-54 -53q-94 94 -129 251q-98 -252 -362 -251q-213 0 -307 147v-408z" />
    <glyph glyph-name="paragraph" unicode="&#xb6;" horiz-adv-x="1026" 
d="M612 0h-82v526q-186 14 -307 118t-121 276t125 290t303 117h330v-1327h-82v1249h-166v-1249z" />
    <glyph glyph-name="periodcentered" unicode="&#xb7;" horiz-adv-x="284" 
d="M63 570q0 32 24 56q25 24 57 24t61 -30t12 -71q-12 -43 -53 -53q-39 -13 -78 18q-23 24 -23 56z" />
    <glyph glyph-name="cedilla" unicode="&#xb8;" horiz-adv-x="614" 
d="M273 -371q86 0 132 34t46 81q0 80 -109 80q-39 0 -84 -18t-65 -37l-56 26l125 211h64l-90 -153q44 27 118 27t117 -36q49 -30 49 -102t-68 -121t-178 -49t-192 55l31 51q74 -49 160 -49z" />
    <glyph glyph-name="uni00B9" unicode="&#xb9;" horiz-adv-x="585" 
d="M393 600h-78v817l-233 -178l-41 57l291 236h61v-932z" />
    <glyph glyph-name="ordmasculine" unicode="&#xba;" horiz-adv-x="815" 
d="M408 739q106 0 181 76q75 77 75 185t-75 184t-181 76t-183 -76q-75 -76 -75 -185t76 -185t182 -75zM407 1335q138 0 237 -98q99 -97 99 -237t-99 -238t-237 -98t-237 98q-98 98 -98 237t98 238q99 98 237 98z" />
    <glyph glyph-name="guillemotright" unicode="&#xbb;" horiz-adv-x="831" 
d="M416 133l-49 49l309 314l-309 313l49 49l340 -332v-61zM129 133l-49 49l309 314l-309 313l49 49l340 -332v-61z" />
    <glyph glyph-name="onequarter" unicode="&#xbc;" horiz-adv-x="1662" 
d="M442 -37l-63 37l819 1364l64 -37zM393 395h-78v817l-233 -178l-41 58l291 235h61v-932zM1448 0h-78v203h-438v67l401 680l64 -35l-377 -639h350v244h78v-244h115v-73h-115v-203z" />
    <glyph glyph-name="onehalf" unicode="&#xbd;" horiz-adv-x="1888" 
d="M442 -37l-63 37l819 1364l64 -37zM393 395h-78v817l-233 -178l-41 58l291 235h61v-932zM1753 0h-635v63q319 268 406 361q133 144 133 242t-60 149q-55 55 -155 55q-152 0 -262 -118l-50 55q129 137 312 137q137 0 217 -74t80 -192q0 -76 -28 -135q-54 -113 -234 -272
q-181 -158 -228 -197h504v-74z" />
    <glyph glyph-name="threequarters" unicode="&#xbe;" horiz-adv-x="1867" 
d="M647 -37l-63 37l819 1364l63 -37zM334 457q117 0 186 71q72 68 72 163t-64 157q-66 61 -158 61t-149 -37l-37 52l346 331h-458v74h561v-67l-283 -281h10q145 0 230 -86q84 -90 84 -208t-94 -212q-96 -92 -250 -92q-195 0 -289 104l49 54q84 -84 244 -84zM1653 0h-78v203
h-438v67l401 680l64 -35l-377 -639h350v244h78v-244h114v-73h-114v-203z" />
    <glyph glyph-name="questiondown" unicode="&#xbf;" horiz-adv-x="980" 
d="M550 1006q36 0 58 -24t23 -56q0 -32 -23 -56q-23 -25 -57 -25t-57 25t-23 57t23 54q20 25 56 25zM123 51q0 168 108 289q111 119 273 131l12 221h74l4 -282q-106 0 -187 -35t-121 -93q-77 -112 -77 -238t98 -228q101 -100 225 -100t210 60q86 62 122 163l74 -39
q-50 -123 -156 -193t-245 -69q-176 0 -297 122q-117 123 -117 291z" />
    <glyph glyph-name="Agrave" unicode="&#xc0;" horiz-adv-x="1404" 
d="M743 1442h-86l-170 237h109zM592 977l-305 -612h829l-303 614l-111 238q-55 -127 -110 -240zM106 0h-86l660 1327h45l659 -1327h-86l-143 289h-905z" />
    <glyph glyph-name="Aacute" unicode="&#xc1;" horiz-adv-x="1404" 
d="M737 1442h-86l148 237h108zM592 977l-305 -612h829l-303 614l-111 238q-55 -127 -110 -240zM106 0h-86l660 1327h45l659 -1327h-86l-143 289h-905z" />
    <glyph glyph-name="Acircumflex" unicode="&#xc2;" horiz-adv-x="1404" 
d="M588 1442h-86l147 237h109l147 -237h-86l-117 170zM592 977l-305 -612h829l-303 614l-111 238q-55 -127 -110 -240zM106 0h-86l660 1327h45l659 -1327h-86l-143 289h-905z" />
    <glyph glyph-name="Atilde" unicode="&#xc3;" horiz-adv-x="1404" 
d="M553 1401h-68q0 74 34 121t82 47t113 -44q64 -44 88 -44t42 24q14 29 14 64h68q0 -74 -33 -121t-80 -47t-115 43q-63 45 -90 45t-39 -25q-16 -22 -16 -63zM592 977l-305 -612h829l-303 614l-111 238q-55 -127 -110 -240zM106 0h-86l660 1327h45l659 -1327h-86l-143 289
h-905z" />
    <glyph glyph-name="Adieresis" unicode="&#xc4;" horiz-adv-x="1404" 
d="M776 1496q0 28 19 48q20 18 48 18t46 -18q18 -20 18 -48t-18 -46t-46 -18t-48 18q-19 18 -19 46zM500 1496q0 28 19 47t47 19t46 -18q18 -20 18 -48t-18 -46t-46 -18t-47 18t-19 46zM592 977l-305 -612h829l-303 614l-111 238q-55 -127 -110 -240zM106 0h-86l660 1327h45
l659 -1327h-86l-143 289h-905z" />
    <glyph glyph-name="Aring" unicode="&#xc5;" horiz-adv-x="1404" 
d="M702 1452q51 0 86 39t35 90t-34 90t-87 39t-87 -39q-33 -39 -33 -90t34 -92q35 -37 86 -37zM512 1581q0 78 56 134q56 57 134 57t134 -56t57 -135q0 -78 -56 -134q-55 -56 -133 -56t-137 55q-55 57 -55 135zM592 977l-305 -612h829l-303 614l-111 238q-55 -127 -110 -240
zM106 0h-86l660 1327h45l659 -1327h-86l-143 289h-905z" />
    <glyph glyph-name="AE" unicode="&#xc6;" horiz-adv-x="1886" 
d="M944 365v872l-108 -166l-474 -706h582zM1776 1327v-78h-750v-487h688v-78h-688v-606h778v-78h-860v289h-637l-190 -289h-97l893 1327h863z" />
    <glyph glyph-name="Ccedilla" unicode="&#xc7;" horiz-adv-x="1331" 
d="M740 -371q88 0 128 35q47 29 47 80q0 80 -108 80q-37 0 -83 -18t-67 -37l-55 26l111 189q-258 27 -434 221q-177 201 -177 473t200 470q200 200 479 200t479 -193l-58 -57q-178 172 -422 172t-418 -176t-174 -430t174 -430t432 -176t439 202l57 -59q-201 -221 -504 -221
h-12l-74 -127q45 27 118 27t120 -34q47 -32 47 -104q-1 -72 -69 -121t-176 -49t-193 55l31 51q74 -49 162 -49z" />
    <glyph glyph-name="Egrave" unicode="&#xc8;" horiz-adv-x="1253" 
d="M754 1442h-86l-170 237h108zM1171 0h-1007v1327h977v-78h-895v-489h831v-78h-831v-604h925v-78z" />
    <glyph glyph-name="Eacute" unicode="&#xc9;" horiz-adv-x="1253" 
d="M649 1442h-86l148 237h108zM1171 0h-1007v1327h977v-78h-895v-489h831v-78h-831v-604h925v-78z" />
    <glyph glyph-name="Ecircumflex" unicode="&#xca;" horiz-adv-x="1253" 
d="M1171 0h-1007v1327h977v-78h-895v-489h831v-78h-831v-604h925v-78zM573 1442h-86l148 237h108l148 -237h-86l-117 170z" />
    <glyph glyph-name="Edieresis" unicode="&#xcb;" horiz-adv-x="1253" 
d="M1171 0h-1007v1327h977v-78h-895v-489h831v-78h-831v-604h925v-78zM764 1527q0 28 19 47t47 19t46 -19t19 -47q0 -28 -18 -46q-19 -19 -47 -19t-47 18t-19 47zM487 1527q0 28 21 46q18 20 46 20t46 -19t18 -47t-18 -46q-18 -19 -46 -19t-48 18t-19 47z" />
    <glyph glyph-name="Igrave" unicode="&#xcc;" horiz-adv-x="409" 
d="M246 0h-82v1327h82v-1327zM270 1442h-86l-170 237h109z" />
    <glyph glyph-name="Iacute" unicode="&#xcd;" horiz-adv-x="409" 
d="M225 1442h-86l148 237h108zM246 0h-82v1327h82v-1327z" />
    <glyph glyph-name="Icircumflex" unicode="&#xce;" horiz-adv-x="409" 
d="M246 0h-82v1327h82v-1327zM90 1442h-86l148 237h108l148 -237h-86l-117 170z" />
    <glyph glyph-name="Idieresis" unicode="&#xcf;" horiz-adv-x="409" 
d="M246 0h-82v1327h82v-1327zM279 1496q0 28 19 47t47 19t46 -18q19 -20 19 -48t-18 -46t-47 -18q-28 0 -47 18t-19 46zM2 1496q0 28 18 48q20 18 48 18t47 -18q18 -20 18 -48t-18 -46t-46 -18t-49 18q-18 18 -18 46z" />
    <glyph glyph-name="Eth" unicode="&#xd0;" horiz-adv-x="1435" 
d="M246 639v-561h424q240 0 408 174t169 412q0 238 -169 412t-408 173h-424v-532h459v-78h-459zM670 0h-506v639h-205v78h205v610h506q274 -1 469 -195t195 -468t-196 -469q-194 -195 -468 -195z" />
    <glyph glyph-name="Ntilde" unicode="&#xd1;" horiz-adv-x="1429" 
d="M563 1432h-67q0 74 34 120t81 47q48 0 112 -45q69 -43 93 -43t36 25q16 23 16 63h68q0 -75 -34 -121t-81 -46t-111 44t-90 44t-42 -25q-15 -28 -15 -63zM1184 1327h82v-1327h-72l-948 1184v-1184h-82v1327h65l955 -1192v1192z" />
    <glyph glyph-name="Ograve" unicode="&#xd2;" horiz-adv-x="1572" 
d="M856 1442h-86l-170 237h109zM102 664q0 284 201 484t483 200t484 -201q200 -201 200 -483t-200 -484q-200 -201 -484 -201q-282 0 -483 201t-201 484zM188 664q0 -254 174 -430t422 -176t424 180t176 426t-176 426t-424 180t-422 -176t-174 -430z" />
    <glyph glyph-name="Oacute" unicode="&#xd3;" horiz-adv-x="1572" 
d="M807 1442h-86l147 237h109zM102 664q0 284 201 484t483 200t484 -201q200 -201 200 -483t-200 -484q-200 -201 -484 -201q-282 0 -483 201t-201 484zM188 664q0 -254 174 -430t422 -176t424 180t176 426t-176 426t-424 180t-422 -176t-174 -430z" />
    <glyph glyph-name="Ocircumflex" unicode="&#xd4;" horiz-adv-x="1572" 
d="M102 664q0 284 201 484t483 200t484 -201q200 -201 200 -483t-200 -484q-200 -201 -484 -201q-282 0 -483 201t-201 484zM188 664q0 -254 174 -430t422 -176t424 180t176 426t-176 426t-424 180t-422 -176t-174 -430zM676 1442h-86l147 237h109l147 -237h-86l-116 170z
" />
    <glyph glyph-name="Otilde" unicode="&#xd5;" horiz-adv-x="1572" 
d="M635 1432h-68q0 74 34 120t82 47q47 0 111 -44t89 -44t43 25q14 29 14 63h68q0 -75 -34 -121t-80 -46t-114 43q-63 45 -90 45t-39 -25q-16 -22 -16 -63zM102 664q0 284 201 484t483 200t484 -201q200 -201 200 -483t-200 -484q-200 -201 -484 -201q-282 0 -483 201
t-201 484zM188 664q0 -254 174 -430t422 -176t424 180t176 426t-176 426t-424 180t-422 -176t-174 -430z" />
    <glyph glyph-name="Odieresis" unicode="&#xd6;" horiz-adv-x="1572" 
d="M927 1432q-27 0 -47 18t-20 46t20 47t47 19q28 0 46 -18q18 -20 18 -48t-18 -46t-46 -18zM584 1496q0 28 18 48q20 18 48 18t46 -18q18 -20 18 -48t-18 -46t-46 -18t-48 18q-18 18 -18 46zM102 664q0 284 201 484t483 200t484 -201q200 -201 200 -483t-200 -484
q-200 -201 -484 -201q-282 0 -483 201t-201 484zM188 664q0 -254 174 -430t422 -176t424 180t176 426t-176 426t-424 180t-422 -176t-174 -430z" />
    <glyph glyph-name="multiply" unicode="&#xd7;" 
d="M571 465l-350 -350l-49 51l350 350l-354 354l51 50l352 -353l355 353l51 -50l-354 -354l350 -350l-49 -51z" />
    <glyph glyph-name="Oslash" unicode="&#xd8;" horiz-adv-x="1572" 
d="M786 57q246 1 422 181t176 426q0 152 -66 282t-188 213l-622 -1034q131 -68 278 -68zM188 664q0 -156 70 -283q66 -131 186 -215l621 1034q-125 70 -279 70q-250 0 -424 -176t-174 -430zM102 664q0 284 201 484t483 200q172 0 320 -80l115 190l65 -39l-115 -190
q139 -96 218 -246q82 -145 81 -319q0 -283 -200 -484t-484 -200q-168 0 -319 77l-115 -192l-65 39l116 192q-141 94 -221 246t-80 322z" />
    <glyph glyph-name="Ugrave" unicode="&#xd9;" horiz-adv-x="1355" 
d="M776 1442h-86l-170 237h109zM143 504v823h82v-829q0 -193 131 -318q132 -125 322 -125t321 125t131 318v829h82v-823q0 -236 -156 -380t-379 -144q-222 0 -380 145q-154 146 -154 379z" />
    <glyph glyph-name="Uacute" unicode="&#xda;" horiz-adv-x="1355" 
d="M664 1442h-86l147 237h109zM143 504v823h82v-829q0 -193 131 -318q132 -125 322 -125t321 125t131 318v829h82v-823q0 -236 -156 -380t-379 -144q-222 0 -380 145q-154 146 -154 379z" />
    <glyph glyph-name="Ucircumflex" unicode="&#xdb;" horiz-adv-x="1353" 
d="M143 504v823h82v-829q0 -193 131 -318q132 -125 322 -125t321 125t131 318v829h82v-823q0 -236 -156 -380t-379 -144q-222 0 -380 145q-154 146 -154 379zM565 1442h-86l148 237h108l148 -237h-86l-117 170z" />
    <glyph glyph-name="Udieresis" unicode="&#xdc;" horiz-adv-x="1353" 
d="M143 504v823h82v-829q0 -193 131 -318q132 -125 322 -125t321 125t131 318v829h82v-823q0 -236 -156 -380t-379 -144q-222 0 -380 145q-154 146 -154 379zM752 1496q0 28 18 48q20 18 48 18t46 -18q18 -20 18 -48t-18 -46t-46 -18t-48 18q-18 18 -18 46zM542 1432
q-28 0 -48 18t-19 46q-1 28 19 47t48 19t46 -18q18 -20 18 -48t-18 -46t-46 -18z" />
    <glyph glyph-name="Yacute" unicode="&#xdd;" horiz-adv-x="1243" 
d="M641 1442h-86l147 237h109zM664 0h-82v647l-562 680h101l348 -416l154 -194l155 194l344 416h101l-559 -678v-649z" />
    <glyph glyph-name="Thorn" unicode="&#xde;" horiz-adv-x="1218" 
d="M246 1014v-699h430q144 1 244 101t100 248t-101 248q-101 101 -243 102h-430zM246 0h-82v1327h82v-235h432q174 0 301 -127t127 -301t-126 -300t-302 -126h-432v-238z" />
    <glyph glyph-name="germandbls" unicode="&#xdf;" horiz-adv-x="1091" 
d="M242 0h-78v940q0 195 93 301q93 107 252 107t260 -108t101 -261q0 -104 -41 -188t-102 -119q129 -16 215 -117q88 -94 88 -232q0 -139 -103 -241t-251 -102t-250 102l55 55q80 -84 194 -84q113 0 193 82t80 201t-86 192q-84 78 -235 78h-90v70h12q94 6 164 76
q75 70 75 208t-76 226t-200 88q-123 0 -197 -84t-73 -236v-954z" />
    <glyph glyph-name="agrave" unicode="&#xe0;" horiz-adv-x="1202" 
d="M643 1153h-86l-170 238h109zM577 53q169 0 287 125t117 309q0 183 -117 311q-116 128 -286 128t-287 -127t-117 -309t117 -309q117 -128 286 -128zM578 999q131 0 237 -65q104 -66 166 -184v229h78v-979h-78v229q-61 -119 -167 -185t-236 -64q-201 0 -345 149
q-141 151 -141 361t141 360q144 149 345 149z" />
    <glyph glyph-name="aacute" unicode="&#xe1;" horiz-adv-x="1202" 
d="M598 1153h-86l147 238h109zM577 53q169 0 287 125t117 309q0 183 -117 311q-116 128 -286 128t-287 -127t-117 -309t117 -309q117 -128 286 -128zM578 999q131 0 237 -65q104 -66 166 -184v229h78v-979h-78v229q-61 -119 -167 -185t-236 -64q-201 0 -345 149
q-141 151 -141 361t141 360q144 149 345 149z" />
    <glyph glyph-name="acircumflex" unicode="&#xe2;" horiz-adv-x="1202" 
d="M463 1133h-86l147 237h109l147 -237h-86l-116 170zM577 53q169 0 287 125t117 309q0 183 -117 311q-116 128 -286 128t-287 -127t-117 -309t117 -309q117 -128 286 -128zM578 999q131 0 237 -65q104 -66 166 -184v229h78v-979h-78v229q-61 -119 -167 -185t-236 -64
q-201 0 -345 149q-141 151 -141 361t141 360q144 149 345 149z" />
    <glyph glyph-name="atilde" unicode="&#xe3;" horiz-adv-x="1202" 
d="M426 1155h-68q0 74 34 121t82 47t112 -44t88 -44q25 0 43 25q14 29 14 63h68q0 -74 -33 -121t-80 -47t-115 43q-63 45 -90 45t-39 -24q-16 -23 -16 -64zM577 53q169 0 287 125t117 309q0 183 -117 311q-116 128 -286 128t-287 -127t-117 -309t117 -309q117 -128 286 -128
zM578 999q131 0 237 -65q104 -66 166 -184v229h78v-979h-78v229q-61 -119 -167 -185t-236 -64q-201 0 -345 149q-141 151 -141 361t141 360q144 149 345 149z" />
    <glyph glyph-name="adieresis" unicode="&#xe4;" horiz-adv-x="1202" 
d="M649 1236q-1 28 19 47t48 19t46 -18q18 -20 18 -48t-18 -46t-46 -18t-48 18t-19 46zM373 1236q0 28 19 47t47 19t46 -18q19 -20 19 -48t-18 -46t-47 -18q-28 0 -47 18t-19 46zM577 53q169 0 287 125t117 309q0 183 -117 311q-116 128 -286 128t-287 -127t-117 -309
t117 -309q117 -128 286 -128zM578 999q131 0 237 -65q104 -66 166 -184v229h78v-979h-78v229q-61 -119 -167 -185t-236 -64q-201 0 -345 149q-141 151 -141 361t141 360q144 149 345 149z" />
    <glyph glyph-name="aring" unicode="&#xe5;" horiz-adv-x="1202" 
d="M479 1305q0 -51 35 -93q35 -36 86 -36t86 36q35 40 35 92t-34 91t-87 39t-87 -39t-34 -90zM410 1306q0 78 56 133q56 56 134 56t134 -56t56 -134q0 -79 -56 -135t-133 -56t-136 55q-55 59 -55 137zM577 53q169 0 287 125t117 309q0 183 -117 311q-116 128 -286 128
t-287 -127t-117 -309t117 -309q117 -128 286 -128zM578 999q131 0 237 -65q104 -66 166 -184v229h78v-979h-78v229q-61 -119 -167 -185t-236 -64q-201 0 -345 149q-141 151 -141 361t141 360q144 149 345 149z" />
    <glyph glyph-name="ae" unicode="&#xe6;" horiz-adv-x="1875" 
d="M1348 926q-152 0 -265 -115t-129 -283h781q-12 166 -123 282q-112 116 -264 116zM580 500q-244 0 -348 -101q-58 -57 -58 -150t71 -145t183 -53q209 0 329 114t120 308v23q-131 4 -297 4zM92 256q0 180 158 252q141 66 330 65q72 0 292 -10q0 172 -89 267t-242 96
q-84 0 -181 -21q-92 -27 -118 -49l-33 -22l-43 59q26 19 46 33t118 44t211 29q307 0 391 -262q66 121 178 192t240 70q192 -1 330 -151t139 -354l-2 -39h-863q16 -172 135 -287t299 -115t310 146l53 -52q-156 -168 -377 -167q-145 0 -272 79q-123 80 -184 215
q-52 -145 -188 -220q-136 -74 -292 -74t-252 73q-94 74 -94 203z" />
    <glyph glyph-name="ccedilla" unicode="&#xe7;" horiz-adv-x="1040" 
d="M576 -371q86 0 132 34t46 81q0 80 -109 80q-39 0 -84 -18t-65 -37l-56 26l111 189q-195 18 -327 162t-132 349t150 355t356 150t356 -144l-53 -53q-127 123 -301 123t-300 -127t-126 -311t126 -309q126 -126 309 -126t317 146l53 -52q-150 -162 -367 -167l-73 -127
q45 27 119 27t116 -36q49 -30 49 -102q-1 -72 -69 -121t-178 -49t-191 55l31 51q74 -49 160 -49z" />
    <glyph glyph-name="egrave" unicode="&#xe8;" horiz-adv-x="1130" 
d="M623 1153h-86l-170 238h108zM567 999q195 -1 333 -151t138 -350l-2 -43h-862q16 -172 135 -287t299 -115t310 146l53 -52q-156 -167 -370 -167t-361 150q-148 150 -148 358q0 210 139 362q141 149 336 149zM566 926q-154 0 -265 -117q-113 -113 -127 -281h780
q-12 166 -123 282t-265 116z" />
    <glyph glyph-name="eacute" unicode="&#xe9;" horiz-adv-x="1130" 
d="M580 1153h-86l147 238h109zM567 999q195 -1 333 -151t138 -350l-2 -43h-862q16 -172 135 -287t299 -115t310 146l53 -52q-156 -167 -370 -167t-361 150q-148 150 -148 358q0 210 139 362q141 149 336 149zM566 926q-154 0 -265 -117q-113 -113 -127 -281h780
q-12 166 -123 282t-265 116z" />
    <glyph glyph-name="ecircumflex" unicode="&#xea;" horiz-adv-x="1130" 
d="M442 1133h-86l148 237h108l148 -237h-86l-117 170zM567 999q195 -1 333 -151t138 -350l-2 -43h-862q16 -172 135 -287t299 -115t310 146l53 -52q-156 -167 -370 -167t-361 150q-148 150 -148 358q0 210 139 362q141 149 336 149zM566 926q-154 0 -265 -117
q-113 -113 -127 -281h780q-12 166 -123 282t-265 116z" />
    <glyph glyph-name="edieresis" unicode="&#xeb;" horiz-adv-x="1130" 
d="M631 1236q0 28 19 47t47 19t46 -18q19 -20 19 -48t-18 -46t-47 -18q-28 0 -47 18t-19 46zM354 1236q0 28 20 47t47 19q28 0 46 -18q18 -20 18 -48t-18 -46t-46 -18q-27 0 -47 18t-20 46zM567 999q195 -1 333 -151t138 -350l-2 -43h-862q16 -172 135 -287t299 -115
t310 146l53 -52q-156 -167 -370 -167t-361 150q-148 150 -148 358q0 210 139 362q141 149 336 149zM566 926q-154 0 -265 -117q-113 -113 -127 -281h780q-12 166 -123 282t-265 116z" />
    <glyph glyph-name="igrave" unicode="&#xec;" horiz-adv-x="364" 
d="M221 0h-78v979h78v-979zM246 1153h-86l-170 238h108z" />
    <glyph glyph-name="iacute" unicode="&#xed;" horiz-adv-x="364" 
d="M203 1153h-86l147 238h109zM221 0h-78v979h78v-979z" />
    <glyph glyph-name="icircumflex" unicode="&#xee;" horiz-adv-x="364" 
d="M221 0h-78v979h78v-979zM66 1133h-86l147 237h109l147 -237h-86l-117 170z" />
    <glyph glyph-name="idieresis" unicode="&#xef;" horiz-adv-x="364" 
d="M221 0h-78v979h78v-979zM256 1236q0 28 19 47t47 19t47 -18q18 -20 18 -48t-18 -46t-46 -18q-27 0 -47 18t-20 46zM-20 1236q0 28 19 47t47 19t46 -18q18 -20 18 -48t-18 -46t-46 -18t-47 18t-19 46z" />
    <glyph glyph-name="eth" unicode="&#xf0;" horiz-adv-x="1204" 
d="M602 926q-176 0 -302 -127t-126 -311t126 -309q126 -126 302 -126t302 126t126 309q0 182 -126 310t-302 128zM602 999q170 0 279 -102q-115 166 -293 279l-193 -86l-30 61l147 66q-80 41 -172 67l27 66q123 -35 227 -97l211 95l31 -62l-170 -76q168 -114 307 -318
t139 -409t-150 -355t-360 -148q-210 0 -360 150t-150 360t150 360t360 149z" />
    <glyph glyph-name="ntilde" unicode="&#xf1;" horiz-adv-x="1064" 
d="M391 1155h-67q0 74 32 121t82 47q49 0 113 -45q69 -43 93 -43t36 25q16 23 16 63h68q0 -74 -34 -121t-81 -47t-111 44t-90 44t-42 -24q-15 -29 -15 -64zM221 0h-78v979h78v-178q106 199 352 198q168 0 271 -96q98 -96 98 -264v-639h-78v616q0 309 -301 310
q-131 0 -239 -97q-102 -96 -103 -239v-590z" />
    <glyph glyph-name="ograve" unicode="&#xf2;" horiz-adv-x="1204" 
d="M672 1153h-86l-170 238h108zM602 926q-176 0 -302 -127t-126 -311t126 -309q126 -126 302 -126t302 126t126 309q0 182 -126 310t-302 128zM92 490q0 210 150 360t360 150t361 -150q149 -150 149 -361t-150 -361t-360 -149q-210 0 -360 150q-150 151 -150 361z" />
    <glyph glyph-name="oacute" unicode="&#xf3;" horiz-adv-x="1204" 
d="M625 1153h-86l147 238h109zM602 926q-176 0 -302 -127t-126 -311t126 -309q126 -126 302 -126t302 126t126 309q0 182 -126 310t-302 128zM92 490q0 210 150 360t360 150t361 -150q149 -150 149 -361t-150 -361t-360 -149q-210 0 -360 150q-150 151 -150 361z" />
    <glyph glyph-name="ocircumflex" unicode="&#xf4;" horiz-adv-x="1204" 
d="M602 926q-176 0 -302 -127t-126 -311t126 -309q126 -126 302 -126t302 126t126 309q0 182 -126 310t-302 128zM92 490q0 210 150 360t360 150t361 -150q149 -150 149 -361t-150 -361t-360 -149q-210 0 -360 150q-150 151 -150 361zM485 1133h-86l148 237h108l148 -237
h-86l-117 170z" />
    <glyph glyph-name="otilde" unicode="&#xf5;" horiz-adv-x="1204" 
d="M451 1155h-68q0 74 34 121t82 47t111 -44t88 -44t43 25q14 29 15 63h67q-1 -74 -33 -121t-79 -47t-115 43q-63 45 -90 45t-39 -24q-16 -23 -16 -64zM602 926q-176 0 -302 -127t-126 -311t126 -309q126 -126 302 -126t302 126t126 309q0 182 -126 310t-302 128zM92 490
q0 210 150 360t360 150t361 -150q149 -150 149 -361t-150 -361t-360 -149q-210 0 -360 150q-150 151 -150 361z" />
    <glyph glyph-name="odieresis" unicode="&#xf6;" horiz-adv-x="1204" 
d="M676 1236q0 28 19 47t47 19t46 -18q18 -20 18 -48t-18 -46t-46 -18t-47 18t-19 46zM399 1236q-1 28 19 47t48 19t46 -18q18 -20 18 -48t-18 -46t-46 -18t-48 18t-19 46zM602 926q-176 0 -302 -127t-126 -311t126 -309q126 -126 302 -126t302 126t126 309q0 182 -126 310
t-302 128zM92 490q0 210 150 360t360 150t361 -150q149 -150 149 -361t-150 -361t-360 -149q-210 0 -360 150q-150 151 -150 361z" />
    <glyph glyph-name="divide" unicode="&#xf7;" 
d="M1014 483h-883v74h883v-74zM485 276q0 34 26 59q27 25 61 25t60 -26t26 -60t-26 -60t-60 -26t-62 25q-25 29 -25 63zM485 764q0 34 26 60q27 26 61 26t60 -26t26 -60t-26 -61q-26 -26 -60 -26t-62 25q-25 27 -25 62z" />
    <glyph glyph-name="oslash" unicode="&#xf8;" horiz-adv-x="1204" 
d="M174 489q0 -221 174 -352l443 744q-82 45 -189 45q-176 0 -302 -128t-126 -309zM602 53q176 0 302 126t126 310q0 104 -48 201t-130 154l-444 -746q88 -45 194 -45zM92 489q0 211 150 361t360 149q117 0 227 -55l95 158l61 -37l-94 -156q105 -75 163 -185t58 -235
q0 -211 -150 -361t-360 -148q-121 0 -231 55l-90 -150l-62 37l90 150q-104 72 -157 180q-60 106 -60 237z" />
    <glyph glyph-name="ugrave" unicode="&#xf9;" horiz-adv-x="1044" 
d="M625 1153h-86l-170 238h108zM123 340v639h78v-617q0 -309 301 -309q133 0 227 94t94 242v590h78v-979h-78v166q-100 -186 -331 -186q-168 0 -271 96q-98 96 -98 264z" />
    <glyph glyph-name="uacute" unicode="&#xfa;" horiz-adv-x="1044" 
d="M522 1153h-86l148 238h108zM123 340v639h78v-617q0 -309 301 -309q133 0 227 94t94 242v590h78v-979h-78v166q-100 -186 -331 -186q-168 0 -271 96q-98 96 -98 264z" />
    <glyph glyph-name="ucircumflex" unicode="&#xfb;" horiz-adv-x="1044" 
d="M123 340v639h78v-617q0 -309 301 -309q133 0 227 94t94 242v590h78v-979h-78v166q-100 -186 -331 -186q-168 0 -271 96q-98 96 -98 264zM385 1133h-86l147 237h109l147 -237h-86l-116 170z" />
    <glyph glyph-name="udieresis" unicode="&#xfc;" horiz-adv-x="1044" 
d="M575 1236q-1 28 19 47t48 19t46 -18q18 -20 18 -48t-18 -46t-46 -18t-48 18t-19 46zM299 1236q0 28 19 47q20 19 48 19t46 -18q18 -20 18 -48t-18 -46t-46 -18t-48 18t-19 46zM123 340v639h78v-617q0 -309 301 -309q133 0 227 94t94 242v590h78v-979h-78v166
q-100 -186 -331 -186q-168 0 -271 96q-98 96 -98 264z" />
    <glyph glyph-name="yacute" unicode="&#xfd;" horiz-adv-x="1054" 
d="M569 1153h-86l148 238h108zM225 -301v74q92 0 144 39q55 35 114 165l23 50l-475 952h88l356 -721l70 -152l393 873h86l-471 -1032q-74 -166 -154 -207t-174 -41z" />
    <glyph glyph-name="thorn" unicode="&#xfe;" horiz-adv-x="1202" 
d="M625 53q171 0 287 128t116 309q0 180 -117 308t-287 128t-286 -127q-117 -127 -117 -309t117 -309q117 -128 287 -128zM221 -281h-78v1608h78v-577q59 118 166 184t238 65q201 1 343 -149t142 -361t-142 -361t-343 -148q-133 0 -240 65q-104 66 -164 184v-510z" />
    <glyph glyph-name="ydieresis" unicode="&#xff;" horiz-adv-x="1054" 
d="M621 1236q0 28 19 47t47 19t46 -18q19 -20 19 -48t-18 -46t-47 -18q-28 0 -47 18t-19 46zM344 1236q0 28 21 46q18 20 46 20t46 -18q18 -20 18 -48t-18 -46t-46 -18q-27 0 -47 18t-20 46zM225 -301v74q92 0 144 39q55 35 114 165l23 50l-475 952h88l356 -721l70 -152
l393 873h86l-471 -1032q-74 -166 -154 -207t-174 -41z" />
  </font>
</defs>
</svg>
